<?xml version="1.0" encoding="utf-8"?>
<!-- Generator: Adobe Illustrator 25.1.0, SVG Export Plug-In . SVG Version: 6.00 Build 0)  -->
<svg version="1.1" xmlns="http://www.w3.org/2000/svg" xmlns:xlink="http://www.w3.org/1999/xlink" x="0px" y="0px"
	 viewBox="0 0 500 500" style="enable-background:new 0 0 500 500;" xml:space="preserve">
<style type="text/css">
	.st0{stroke:#000000;stroke-width:0.15;stroke-miterlimit:10;}
	.st1{font-family:'Karantina-Bold';}
	.st2{font-size:25.5949px;}
	.st3{letter-spacing:1;}
	.st4{fill:#B31615;}
	.st5{fill:#FFFFFF;}
	.st6{fill:none;}
</style>
<g id="BACKGROUND">
</g>
<g id="OBJECTS">
	<g>
		<g>
			<g>
				<g>
					<text transform="matrix(0.9567 0 0 1 152.6638 185.4883)" class="st0 st1 st2 st3">EST.</text>
					<text transform="matrix(0.9567 0 0 1 291.9745 185.4883)" class="st0 st1 st2 st3">2021</text>
				</g>
			</g>
			<g>
				<path class="st4" d="M199.4,151.1c4.7-13.4,0-18.5,0-18.5c9.6,2.1,4.5,20,7.9,28.4c3.4,8.4,11.6,8.9,4.4-1.6
					c-7.3-10.5,2.7-19.7,2.9-26c0.1-6.3-3.5-8.8-3.5-8.8c10.1,5,8,29.2,12.3,19.5c4.3-9.7-7.8-13.4-7-24.7s13.9-12.9,13.9-12.9
					c-5.8,4.7-5.1,19.9,3.2,19.2c4.8-0.4,3.2-4.8,0.8-10.4c-2.8-6.7-3.2-16,0.2-21.4c7.1-11.5,19.1-14.2,19.1-14.2
					c-13.4,10.3,0.1,14.6,3.7,26.2c2.2,7-5.7,14.5,1.9,20c6.1,4.3,13.3-0.1,8.6-7.8c-3.8-6.1,0.6-11.7,0.6-11.7
					c1,6.5,15.1,9.3,15.8,19.1c0.7,9.8-23.9,23.6-19.3,29.8s8.3,0.7,12.8-11.4c4.5-12.1,18.3-9.5,18.3-9.5
					c-17.8,16.7,6.6,26.8-7.4,48.5c-4,6.2-9,10.2-14.2,12.9c3.4-4.3,5.2-10.3,3.2-18.7c0,0,0.7,8.3-6,9.1c-6.8,0.8-8.9-3.2-6.4-10.1
					c2.4-6.7,0.4-13.1-5.1-16.6c-0.3-0.2-0.5-0.3-0.5-0.3c0.2,0.1,0.3,0.2,0.5,0.3c1,0.8,3.1,3.4-1,9.7c-3,4.6-11.5-0.7-12.5-10
					c-1-9.2,8.3-15.4,0.6-22.9c0,0,0.5,4.6-4.5,9.5c-4.9,4.9-8.9,6.8-8.8,13.1c0.1,6.3,5.7,9.8,2.6,11.9c-3,2.1-3.4-9.9-8.4-11.8
					c0,0,2.5,3-1.5,10.4c-3.8,7-5.9,7.1-9.5,12.4c-2.7,3.9-3.1,7.8-0.9,13.7C190.9,189.4,194.7,164.5,199.4,151.1z"/>
				<path class="st4" d="M260.5,105.6c-0.2,0.3,0.3-4.2-3.8-9.4c-4-5.1-3.8-8.2-2.8-10.4c0,0-0.9,4.4,1.6,7
					C258.1,95.3,263.2,100.9,260.5,105.6z"/>
				<path class="st4" d="M209.8,137.7c0,0,3.9-1.4,2.7-6.8c-1.1-4.9-6.2-4.1-6.8-10.4c0,0-2.3,3.6-0.8,6.4
					C206.5,129.6,212.3,131.5,209.8,137.7z"/>
				<path class="st4" d="M284.5,130.8c0,0,6.1-4,5.1-9.3c-1-5.3-9.8-7-10.1-13.2c0,0-2.3,4.9,3.2,9.8
					C286.6,121.6,288.3,124.3,284.5,130.8z"/>
			</g>
			<g>
				<g>
					<path d="M383.3,239.7l0.2-1.2c0,0,2.9-15.3,11.2-16.3c8.3-1,78.3,4.4,78.3,4.4s-1.5-5-32.8-9.6c-23.4-3.4-50.9-8.5-62.5-4.5
						c-9.8,3.3-11.9,8.1-20.6,15.7c-2.6,2.3-9.8,3.7-12.1,3.7l0,0c-52.7-4.4-112.3,0.9-156,6.8c-37.4,5-68.8,11-85.5,14.5
						c-1.5-5.4-3.1-10.2-5.4-9.5c0,0-6.6-0.8-7.4,2.2c-0.8,3-0.5,9.6-7.2,11.7c-6.6,2.1-41.7-0.9-54.5,10.2
						c-12.7,11.1-2.7,26.2,8.3,24c11-2.2,35.2-18.2,44.1-23c13.2-7.1,15.3,6.6,21.8,2.7c4.3-2.6,3.9-5.4,1.9-12.3c0,0,0-0.1,0-0.1
						c16.7-3.4,47.8-9.4,84.7-14.4c42.9-5.7,101.3-11,152.9-6.9c0.2,0,9.4,1.3,13.7,5c7.4,6.5,5.9,14.4,13.8,20.1
						c9.9,7.1,37.8,10.3,61.1,13.8c31.4,4.7,34.2,0.3,34.2,0.3s-68.5-15.2-76.2-18.5C381.7,255.1,383.3,239.7,383.3,239.7z"/>
				</g>
				<path class="st4" d="M117.2,232.7c2.6,9.7,10.7,31.5,13.9,36.6c3.2,5.1,18.5,4.6,30.9,2.5c12.4-2.1,13.8-19.2,9.2-37.6
					c-4.6-18.4-17.5-17.4-25-18.1C138.5,215.4,114.3,221.8,117.2,232.7z"/>
				<path class="st4" d="M278.2,206.6c-1,10.9-1.2,36.1,0,42.4c1.2,6.2,15.9,10.5,28.5,12.3c12.5,1.7,20-15.6,22.2-36.2
					c2.2-20.6-10.3-23.5-17.3-26.6C304.7,195.3,279.4,194.4,278.2,206.6z"/>
				<path class="st4" d="M172.3,218.5c1.5,10.9,7.1,35.5,9.7,41.3c2.6,5.8,17.9,6.6,30.5,5.4c12.6-1.2,10.3-18,7.7-38.5
					c-2.6-20.5-9.9-22.3-17.4-23.8C195.5,201.4,170.6,206.3,172.3,218.5z"/>
				<path class="st4" d="M225.7,209.5c0.1,11,2.4,36.1,4.2,42.2c1.8,6.1,16.9,8.9,29.5,9.4c12.6,0.5,12.6-16.5,12.8-37.2
					c0.2-20.7-6.8-23.5-14.1-25.9S225.6,197.3,225.7,209.5z"/>
				<path class="st5" d="M123.1,227.5c-1,2.8-1.2,5.8-0.9,8.7c0.2,1.9,0.6,3.8,1.3,5.6c0.3,0.7,2.5,4.3,2.3,4.8
					c2.8-5.9,2.7-12.5,2.2-19c-0.1-1-0.2-2.1-0.8-2.9c-0.3-0.5-0.9-0.8-1.5-0.8c-0.9,0-1.4,0.8-1.8,1.6
					C123.6,226.2,123.3,226.9,123.1,227.5z"/>
				<path class="st5" d="M218.2,245.7c-2.4,1.2-4.4,4.5-5.9,6.5c-2.4,3.1-4.6,6.3-6.6,9.6c-0.1,0.2-0.3,0.4-0.3,0.7
					c0,0.8,1.1,1.1,2,1c3.9-0.5,7.6-2.6,10-5.7c2.4-3.1,3.5-7.2,3-11.1c0-0.3-0.1-0.6-0.3-0.8c-0.3-0.4-1-0.5-1.4-0.3
					C218.4,245.6,218.3,245.6,218.2,245.7z"/>
				<path class="st5" d="M240.6,204.3c-3.9,2-6.8,5.5-7.2,10.1c-0.1,1.2,0.1,2.7,1.1,3.4c0.8,0.6,2,0.6,3,0.2c1.6-0.5,2.8-1.7,4-2.8
					c3.3-3.3,6-7.2,8.6-11.1c0.2-0.3,0.4-0.6,0.2-0.9c-0.1-0.3-0.5-0.4-0.8-0.4C246.5,202.3,243.4,202.9,240.6,204.3z"/>
				<path class="st5" d="M283.2,241.6c-1.6,1,0.5,6.1,1.7,7.5c1.8,2,4.2,3.3,6.7,4.3c2.2,0.9,4.5,1.7,6.8,2.2
					c0.8,0.2,1.7,0.4,2.4-0.2c0.7-0.5,0.7-1.5,0.5-2.3c-0.5-2.3-2.4-4-4.3-5.3c-3.6-2.6-7.7-4.3-11.8-6.1
					C284.3,241.3,283.6,241.3,283.2,241.6z"/>
				<path class="st5" d="M313.7,205c-0.2,0.8,0.6,1.7,1.2,2.4c2.9,3.3,3.7,8,4.6,12.3c0.1,0.7,0.3,1.4,0.7,2s1.1,1,1.8,0.9
					c1.2-0.2,1.6-1.8,1.6-3c0-4.1-1-8.3-3.1-11.9c-0.7-1.2-1.5-2.4-2.7-3.1c-0.9-0.5-2.5-1-3.5-0.3C314,204.5,313.8,204.7,313.7,205
					z"/>
			</g>
			<g>
				<g>
					<path d="M120.2,353.2c0-20.9,0-41.8,0-62.6c-0.6,0-0.9,0-1.5,0c0.5-5.7,0.7-8.4,1.1-13.2c6.2,0,9.3,0.1,15.5,0.2
						c4.2,0.1,7.2,1.2,9,3.4c1.8,2.2,2.8,5.7,2.8,10.9c0,5.4,0,8.2,0,13.9c0,2.2-0.1,4.1-0.4,5.8c1.4,2.3,2.1,5.9,2.1,10.7
						c0,5.6,0,8.4,0,13.7c0,5.2-0.9,8.9-2.7,11.3c-1.8,2.4-4.8,4-9.1,4.6C130.3,352.7,126.9,353,120.2,353.2z M135.6,307.2
						c0.3,0,0.4-0.2,0.4-0.6c0-6.3,0-9.5,0-15.4c0-0.4-0.1-0.5-0.4-0.5c-1.7,0-2.6,0-4.3,0c0,6.4,0,9.8,0,16.7
						C133,307.3,133.8,307.3,135.6,307.2z M137.6,322.7c0-0.4-0.1-0.5-0.4-0.5c-2.4,0.2-3.6,0.3-6,0.4c0,6.8,0,10.2,0,16.6
						c2.4-0.2,3.6-0.4,6-0.7c0.3,0,0.4-0.2,0.4-0.6C137.7,332.1,137.7,328.9,137.6,322.7z"/>
					<path d="M151.7,349.1c2.4-19.4,4.4-38.9,6.7-58.4c-0.7,0-1,0-1.7,0c0.4-5.3,0.7-7.8,1.1-12.6c7.7,0.3,11.5,0.4,19.2,0.6
						c2.9,21.3,5.6,42.6,8.5,63.9c-4.4,0.6-6.6,1-11.1,1.8c-0.5-3.4-0.7-5.2-1.2-8.8c-3.7,0.6-5.5,1-9.2,1.7
						c-0.5,3.9-0.7,5.8-1.2,9.5C158.4,347.7,156.2,348.2,151.7,349.1z M165.5,324.1c2.4-0.3,3.6-0.5,6.1-0.8
						c-1.2-9.5-1.8-14.6-3.1-24.4C167.3,308.7,166.7,314,165.5,324.1z"/>
					<path d="M189.9,342.2c0-17.1,0-34.2,0-51.3c-0.6,0-0.9,0-1.6,0c0.5-4.8,0.7-7.2,1.1-11.8c6,0.1,9,0.1,15,0.1c4.2,0,7.2,1,9.1,3
						c1.8,2,2.7,5.2,2.7,9.7c0,8.1,0,12.2,0,20.3c0,4.6-0.9,7.8-2.7,9.8c2,7.8,3,11.7,5.1,19.5c-4.5,0-6.7,0-11.1,0
						c-1.7-6.6-2.6-9.9-4.3-16.5c-0.9,0-1.3,0-2.2,0c0,6.6,0,9.9,0,16.5C196.6,341.5,194.4,341.7,189.9,342.2z M204.8,291
						c-1.5,0-2.2,0-3.7,0c0,8.8,0,13.2,0,22.1c1.5,0,2.2,0,3.7,0c0.3,0,0.4-0.1,0.4-0.4c0-8.5,0-12.7,0-21.2
						C205.2,291.2,205,291,204.8,291z"/>
					<path d="M222.7,341.5c0-16.8,0-33.6,0-50.4c-0.6,0-0.9,0-1.6,0c0.5-4.7,0.7-7.1,1.1-11.8c6.3,0,9.4,0,15.7,0c4.2,0,7.2,1,9.1,3
						c1.8,2,2.7,5.2,2.7,9.7c0,4.7,0,7,0,11.7c0,1.8-0.1,3.4-0.4,4.7c1.4,2,2,4.9,2,8.9c0,4.6,0,6.9,0,11.6c0,4.5-0.9,7.8-2.7,9.7
						c-1.8,2-4.8,3-9.1,3C232.9,341.5,229.5,341.5,222.7,341.5z M238.2,304.5c0.3,0,0.4-0.1,0.4-0.4c0-5,0-7.5,0-12.5
						c0-0.3-0.1-0.4-0.4-0.4c-1.7,0-2.6,0-4.3,0c0,5.4,0,8.1,0,13.4C235.6,304.5,236.5,304.5,238.2,304.5z M240.3,316.8
						c0-0.3-0.1-0.4-0.4-0.4c-2.4,0-3.6,0-6,0c0,5.3,0,8,0,13.3c2.4,0,3.6,0,6,0c0.3,0,0.4-0.1,0.4-0.4
						C240.3,324.2,240.3,321.7,240.3,316.8z"/>
					<path d="M255.8,341.5c0-16.8,0-33.6,0-50.4c-0.6,0-0.9,0-1.6,0c0.5-4.7,0.7-7.1,1.1-11.8c9.4,0,14.1,0,23.4,0
						c-0.3,4.7-0.4,7.1-0.7,11.8c-4.5,0-6.7,0-11.2,0c0,5.3,0,8,0,13.3c4,0,6,0,10.1,0c-0.3,4.7-0.4,7.1-0.7,11.8
						c-3.8,0-5.7,0-9.4,0c0,5.4,0,8.1,0,13.4c4.8,0,7.1,0,11.9,0c-0.3,4.7-0.4,7.1-0.7,11.8C269.3,341.5,264.8,341.5,255.8,341.5z"
						/>
					<path d="M309.4,317.3c0,6.2,0,9.4,0,15.3c0,4.8-0.9,7.9-2.7,9.4c-1.8,1.5-4.9,1.8-9.1,1.1c-1.4-0.2-2.2-0.3-3.6-0.5
						c-4.2-0.5-7.2-1.5-9.1-3.5c-1.8-2-2.7-5.2-2.7-9.7c0-12.7,0-25.5,0-38.2c0-4.6,0.9-7.8,2.7-9.8c1.8-2,4.8-2.9,9.1-3.2
						c1.4-0.1,2.2-0.1,3.6-0.2c4.2-0.3,7.2,0.3,9.1,2c1.8,1.7,2.7,4.9,2.7,9.8c0,6.3,0,9.6,0,16.3c-4.5-0.7-6.7-1.1-11.1-1.7
						c0-5.8,0-8.7,0-14.3c0-0.3-0.1-0.4-0.4-0.4c-1.6,0.1-2.5,0.1-4.1,0.2c-0.3,0-0.4,0.2-0.4,0.5c0,13.3,0,26.6,0,40
						c0,0.3,0.1,0.5,0.4,0.5c1.6,0.2,2.5,0.3,4.1,0.5c0.3,0,0.4-0.1,0.4-0.4c0-5.8,0-8.8,0-14.8
						C302.7,316.6,304.9,316.8,309.4,317.3z"/>
					<path d="M341.8,340c0,5.9-0.9,9.4-2.7,11c-1.8,1.7-4.9,1.7-9.1,0.4c-1.8-0.6-2.7-0.8-4.4-1.4c-4.2-1.3-7.2-3.2-9.1-5.8
						c-1.8-2.6-2.7-6.1-2.7-11.1c0-14.6,0-29.2,0-43.8c-0.6,0-0.9,0.1-1.6,0.1c0.5-5.2,0.7-7.7,1.1-12.4c4.6-0.6,6.9-0.9,11.6-1.6
						c0,20.3,0,40.6,0,60.9c0,0.4,0.1,0.6,0.4,0.6c2,0.5,3,0.8,4.9,1.3c0.3,0.1,0.4-0.1,0.4-0.4c0-21.1,0-42.2,0-63.2
						c4.5-0.6,6.7-1,11.2-1.6C341.8,295.4,341.8,317.7,341.8,340z"/>
					<path d="M346.3,355.8c0-23,0-46.1,0-69.1c-0.6,0-0.9,0.1-1.6,0.1c0.5-6.2,0.7-9.2,1.1-14.2c9.4-1.1,14.1-1.6,23.4-1.6
						c-0.3,4.9-0.4,7.9-0.7,14.5c-4.5,0.1-6.7,0.2-11.2,0.5c0,7.3,0,11.4,0,19.6c4,0,6.1,0,10.1,0c-0.3,7.5-0.4,11.4-0.7,18.9
						c-3.8-0.1-5.7-0.2-9.4-0.5c0,8.3,0,12.4,0,19.7c4.8,0.7,7.1,0.9,11.9,1c-0.3,6.6-0.4,9.6-0.7,14.4
						C359.7,359,355.2,358.1,346.3,355.8z"/>
				</g>
			</g>
			<path d="M338.8,364.2c1.7-1.3-13.3-5.5-24.7-8.2c-11.4-2.7-36-6.8-44.6-7.6c-8.6-0.8-21.4-1.3-30.2-0.8c-8.8,0.5-30.2,1-37.9,1.8
				c-7.7,0.8-9.4,1.2-16.5,2.7c-7,1.5-8.9,2.3-14,3.4c-5.1,1.1-11.2,3.4-15.4,5.6c-4.1,2.2-8.7,4.8-5.8,5.1c2.9,0.3,11,2.7,13.4,3.2
				c2.4,0.4-7.3,21.1-6.1,21.2c1.2,0.1,15.9-10.3,41.7-13.3c25.9-3,38-2.7,47.5-1.9c9.5,0.7,28.9,1.7,36.3,2.3
				c7.5,0.7,8.8,1.4,15.6,2.9c6.8,1.5,10.5,2.9,16.9,4.6c6.3,1.7,16.2,4.8,16.4,3.8c0,0-2.2-6.9-3.1-9.8c-0.9-2.9-1.8-4.4-1.3-5.3
				C327.7,372.9,337.1,365.6,338.8,364.2z"/>
			<path id="SVGID_x5F_1_x5F_" class="st6" d="M150,378.3c0,0,102.1-24.4,184.6,5.8"/>
			<text>			<textPath  xlink:href="#SVGID_x5F_1_x5F_" startOffset="11.768%">
<tspan  class="st5 st1" style="font-size:18.1243px; letter-spacing:71.1;">YOUR SLOGAN</tspan>			</textPath>
</text>
			<g>
				<polygon class="st5" points="185.9,358.9 188.6,362.4 193.1,362.2 190.5,365.9 192.1,370.1 187.8,368.8 184.3,371.6 
					184.2,367.1 180.5,364.7 184.7,363.2 				"/>
				<polygon class="st5" points="301.6,361.1 298.8,364.6 294.3,364.3 296.8,368 295.1,372.2 299.4,371 302.9,373.9 303.1,369.4 
					306.9,367 302.7,365.4 				"/>
			</g>
		</g>
		<path class="st5" d="M34,267.2c0,0-10.8,5.5-8.1,16.3C25.9,283.5,29.3,271.9,34,267.2z"/>
	</g>
</g>
</svg>
