<?xml version="1.0" encoding="utf-8"?>
<!-- Generator: Adobe Illustrator 25.1.0, SVG Export Plug-In . SVG Version: 6.00 Build 0)  -->
<svg version="1.1" xmlns="http://www.w3.org/2000/svg" xmlns:xlink="http://www.w3.org/1999/xlink" x="0px" y="0px"
	 viewBox="0 0 500 500" style="enable-background:new 0 0 500 500;" xml:space="preserve">
<style type="text/css">
	.st0{fill:#B2813A;}
	.st1{fill:#FFFFFF;}
	.st2{fill:#141A25;stroke:#FFF2E6;stroke-width:4.3377;stroke-miterlimit:10;}
	.st3{fill:#141A25;stroke:#FFF2E6;stroke-width:2.0465;stroke-miterlimit:10;}
	.st4{fill:#FFF2E6;}
	.st5{font-family:'Andada-Regular';}
	.st6{font-size:15.3726px;}
	.st7{fill:#141A25;}
	.st8{fill:none;}
	.st9{font-family:'Yellowtail';}
	.st10{font-size:24.1227px;}
	.st11{font-family:'SquadaOne-Regular';}
	.st12{font-size:23.8446px;}
	.st13{opacity:0.7;}
</style>
<g id="BACKGROUND">
</g>
<g id="OBJECTS">
	<g>
		<g>
			<g>
				<g>
					<g>
						<polygon class="st0" points="384.2,342.2 389.5,336.4 149.1,132.3 143.8,138.1 						"/>
						<path class="st0" d="M379,346.6l34.2,28.9c4.4,3.7,11.2,3.3,15.1-1c3.9-4.3,3.5-10.8-0.9-14.5l-34.2-28.9
							c-4.4-3.7-11.2-3.3-15.1,1C374.1,336.3,374.5,342.8,379,346.6z M419.7,372.5c-1.7-1.4-1.8-3.8-0.4-5.4c1.5-1.6,4-1.8,5.6-0.4
							c1.7,1.4,1.8,3.8,0.4,5.4C423.9,373.7,421.3,373.9,419.7,372.5z"/>
					</g>
					<g>
						<path class="st0" d="M83.5,67.9c0,0,5.8,2.7,14.4,7.1c8.5,4.5,19.7,10.8,30.4,18.2c5.3,3.7,10.5,7.7,15,12
							c2.3,2.1,4.4,4.4,6.2,6.7c1.9,2.3,3.5,4.8,4.7,7.4c1.2,2.6,2,5.3,2.2,8c0.2,2.7-0.3,5.2-1.1,7.1c-0.7,1.9-1.6,3.3-2.2,4.1
							c-0.6,0.8-1,1.3-1,1.3l-9.6-8.1c0,0,0.2-0.2,0.5-0.5c0.3-0.3,0.7-0.7,1-1.3c0.4-0.6,0.7-1.3,0.8-2.5c0.1-1.1,0-2.6-0.6-4.3
							c-0.5-1.8-1.5-3.7-2.8-5.8c-1.3-2.1-2.8-4.2-4.6-6.4c-3.6-4.3-7.9-8.7-12.6-12.9c-9.3-8.3-19.5-15.9-27.4-21.3
							C88.9,71.3,83.5,67.9,83.5,67.9z"/>
						<path class="st0" d="M69.1,83.7c0,0,4.1,4.8,10.7,11.6c6.6,6.8,15.7,15.6,25.5,23.4c4.9,3.9,10,7.5,14.9,10.4
							c2.5,1.4,4.9,2.6,7.2,3.6c2.3,0.9,4.5,1.6,6.3,1.9c1.9,0.3,3.4,0.2,4.5,0c1.1-0.2,1.9-0.6,2.4-1.1c0.6-0.4,1-0.8,1.2-1.2
							c0.3-0.3,0.4-0.5,0.4-0.5l9.6,8.1c0,0-0.4,0.4-1.2,1.1c-0.8,0.7-2.1,1.7-4,2.7c-1.9,1-4.4,1.8-7.2,2c-2.8,0.2-5.7-0.2-8.5-1
							c-2.8-0.8-5.5-2.1-8.2-3.5c-2.6-1.5-5.2-3.2-7.7-5.1c-5-3.8-9.8-8.2-14.3-12.8C91.9,114,84,104,78.3,96.5
							C72.6,88.9,69.1,83.7,69.1,83.7z"/>
					</g>
				</g>
				<g>
					<path class="st1" d="M380,337.6c0,0,0-0.2,0.1-0.6c0.1-0.4,0.2-0.9,0.6-1.5c0.3-0.6,0.8-1.4,1.7-2c0.9-0.6,2.1-0.9,3.4-0.9
						c1.3,0,2.6,0.3,4,0.8c1.3,0.5,2.7,1.1,4,1.9c1.3,0.8,2.7,1.6,4,2.5c1.3,0.9,2.6,1.9,3.8,2.9c1.2,1,2.5,2.1,3.6,3.1
						c1.2,1,2.3,2.1,3.4,3.2c2.1,2.1,4.1,4.1,5.7,5.9c1.6,1.8,2.9,3.3,3.8,4.4c0.9,1.1,1.4,1.7,1.4,1.7s-0.6-0.5-1.7-1.4
						c-1-0.9-2.5-2.3-4.3-3.9c-1.8-1.6-3.8-3.5-6-5.5c-1.1-1-2.3-2-3.4-3c-1.2-1-2.4-2.1-3.6-3c-2.4-2-5-3.9-7.4-5.5
						c-2.5-1.5-5-2.8-7.2-3c-1.1-0.1-2.1,0-2.9,0.5c-0.8,0.4-1.4,1-1.8,1.6c-0.4,0.6-0.6,1-0.8,1.4C380.1,337.4,380,337.6,380,337.6
						z"/>
					<path class="st1" d="M103.8,122.2c0,0,0.2,0.1,0.6,0.3c0.4,0.2,0.9,0.5,1.6,1c1.4,0.9,3.3,2.3,5.6,3.9c2.3,1.7,4.9,3.6,7.8,5.7
						c1.4,1,2.9,2,4.5,3c1.5,1,3.1,1.9,4.8,2.8c1.6,0.8,3.3,1.6,5,2.1c1.7,0.5,3.4,0.9,5.1,0.9c1.7,0,3.2-0.3,4.6-1
						c0.3-0.2,0.7-0.3,1-0.5c0.3-0.2,0.6-0.4,0.9-0.6c0.3-0.2,0.6-0.4,0.8-0.7c0.3-0.2,0.5-0.5,0.7-0.7c0.4-0.5,0.8-1,1.2-1.5
						c0.3-0.5,0.7-1,1-1.5c0.6-1,1-1.9,1.3-2.6c0.6-1.5,1-2.4,1-2.4s-0.2,0.9-0.6,2.5c-0.3,0.8-0.6,1.7-1.1,2.8
						c-0.3,0.5-0.5,1.1-0.8,1.7c-0.4,0.6-0.7,1.1-1.2,1.7c-0.9,1.1-2.1,2.3-3.6,3.1c-1.5,0.8-3.3,1.3-5.2,1.4
						c-1.9,0-3.8-0.3-5.6-0.8c-1.8-0.6-3.6-1.3-5.3-2.2c-1.7-0.9-3.3-1.9-4.9-2.9c-1.6-1-3-2.1-4.5-3.2c-1.4-1.1-2.7-2.2-4-3.2
						c-1.3-1-2.4-2-3.5-3c-1.1-0.9-2-1.8-2.9-2.5c-0.9-0.8-1.6-1.4-2.2-1.9c-0.6-0.5-1.1-0.9-1.5-1.2
						C104,122.4,103.8,122.2,103.8,122.2z"/>
					<path class="st1" d="M145.3,114.8c0,0-1.4-1.2-3.2-3.1c-0.5-0.5-1-1-1.5-1.5c-0.5-0.5-1.1-1.1-1.7-1.7
						c-0.6-0.6-1.2-1.2-1.8-1.8c-0.6-0.6-1.2-1.3-1.8-1.9c-0.6-0.6-1.2-1.2-1.8-1.8c-0.6-0.6-1.2-1.2-1.8-1.8
						c-0.6-0.6-1.1-1.2-1.7-1.7c-0.6-0.5-1.1-1-1.5-1.5c-1.9-1.8-3.1-3.2-3.1-3.2s1.5,0.9,3.7,2.4c0.6,0.4,1.1,0.8,1.8,1.3
						c0.6,0.4,1.2,1,1.8,1.5c0.6,0.6,1.3,1.1,1.9,1.7c0.6,0.6,1.3,1.2,1.9,1.8c0.6,0.6,1.2,1.3,1.8,2c0.6,0.7,1.1,1.3,1.7,2
						c0.5,0.6,1,1.3,1.5,1.9c0.5,0.6,0.9,1.2,1.2,1.8C144.4,113.3,145.3,114.8,145.3,114.8z"/>
				</g>
			</g>
			<g>
				<g>
					<g>
						<polygon class="st0" points="115.8,342.2 110.5,336.4 350.9,132.3 356.2,138.1 						"/>
						<path class="st0" d="M122,332.1c-3.9-4.3-10.7-4.7-15.1-1L72.7,360c-4.4,3.7-4.8,10.3-0.9,14.5c3.9,4.3,10.7,4.7,15.1,1
							l34.2-28.9C125.5,342.8,125.9,336.3,122,332.1z M74.7,372.1c-1.5-1.6-1.3-4,0.4-5.4c1.7-1.4,4.2-1.2,5.6,0.4
							c1.5,1.6,1.3,4-0.4,5.4C78.7,373.9,76.1,373.7,74.7,372.1z"/>
					</g>
					<g>
						<path class="st0" d="M416.5,67.9c0,0-5.8,2.7-14.4,7.1c-8.5,4.5-19.7,10.8-30.4,18.2c-5.3,3.7-10.5,7.7-15,12
							c-2.3,2.1-4.4,4.4-6.2,6.7c-1.9,2.3-3.5,4.8-4.7,7.4c-1.2,2.6-2,5.3-2.2,8c-0.2,2.7,0.3,5.2,1.1,7.1c0.7,1.9,1.6,3.3,2.2,4.1
							c0.6,0.8,1,1.3,1,1.3l9.6-8.1c0,0-0.2-0.2-0.5-0.5c-0.3-0.3-0.7-0.7-1-1.3c-0.4-0.6-0.7-1.3-0.8-2.5c-0.1-1.1,0-2.6,0.6-4.3
							c0.5-1.8,1.5-3.7,2.8-5.8c1.3-2.1,2.8-4.2,4.6-6.4c3.6-4.3,7.9-8.7,12.6-12.9c9.3-8.3,19.5-15.9,27.4-21.3
							C411.1,71.3,416.5,67.9,416.5,67.9z"/>
						<path class="st0" d="M430.9,83.7c0,0-4.1,4.8-10.7,11.6c-6.6,6.8-15.7,15.6-25.5,23.4c-4.9,3.9-10,7.5-14.9,10.4
							c-2.5,1.4-4.9,2.6-7.2,3.6c-2.3,0.9-4.5,1.6-6.3,1.9c-1.9,0.3-3.4,0.2-4.5,0c-1.1-0.2-1.9-0.6-2.4-1.1c-0.6-0.4-1-0.8-1.2-1.2
							c-0.3-0.3-0.4-0.5-0.4-0.5l-9.6,8.1c0,0,0.4,0.4,1.2,1.1c0.8,0.7,2.1,1.7,4,2.7c1.9,1,4.4,1.8,7.2,2c2.8,0.2,5.7-0.2,8.5-1
							c2.8-0.8,5.5-2.1,8.2-3.5c2.6-1.5,5.2-3.2,7.7-5.1c5-3.8,9.8-8.2,14.3-12.8c9-9.2,16.9-19.1,22.6-26.7
							C427.4,88.9,430.9,83.7,430.9,83.7z"/>
					</g>
				</g>
				<g>
					<path class="st1" d="M120,337.6c0,0-0.1-0.2-0.2-0.5c-0.1-0.3-0.4-0.8-0.8-1.4c-0.4-0.6-1-1.2-1.8-1.6
						c-0.8-0.4-1.8-0.6-2.9-0.5c-2.2,0.3-4.7,1.5-7.2,3c-2.5,1.6-5,3.5-7.4,5.5c-1.2,1-2.4,2-3.6,3c-1.2,1-2.3,2.1-3.4,3
						c-2.2,2-4.3,3.9-6,5.5c-1.8,1.6-3.2,3-4.3,3.9c-1,0.9-1.7,1.4-1.7,1.4s0.5-0.6,1.4-1.7c0.9-1.1,2.2-2.6,3.8-4.4
						c1.6-1.8,3.5-3.8,5.7-5.9c1.1-1,2.2-2.1,3.4-3.2c1.2-1.1,2.4-2.1,3.6-3.1c1.3-1,2.5-2,3.8-2.9c1.3-0.9,2.6-1.8,4-2.5
						c1.3-0.8,2.7-1.4,4-1.9c1.3-0.5,2.7-0.8,4-0.8c1.3,0,2.5,0.3,3.4,0.9c0.9,0.6,1.4,1.4,1.7,2c0.3,0.6,0.5,1.2,0.6,1.5
						C119.9,337.4,120,337.6,120,337.6z"/>
					<path class="st1" d="M396.2,122.2c0,0-0.2,0.1-0.5,0.4c-0.4,0.3-0.8,0.7-1.5,1.2c-0.6,0.5-1.4,1.2-2.2,1.9
						c-0.9,0.8-1.8,1.6-2.9,2.5c-1.1,0.9-2.2,1.9-3.5,3c-1.2,1-2.6,2.1-4,3.2c-1.4,1.1-2.9,2.2-4.5,3.2c-1.6,1-3.2,2-4.9,2.9
						c-1.7,0.8-3.5,1.6-5.3,2.2c-1.8,0.6-3.7,0.9-5.6,0.8c-1.9,0-3.7-0.5-5.2-1.4c-1.6-0.8-2.7-2-3.6-3.1c-0.4-0.6-0.8-1.2-1.2-1.7
						c-0.3-0.6-0.6-1.1-0.8-1.7c-0.5-1.1-0.8-2-1.1-2.8c-0.4-1.6-0.6-2.5-0.6-2.5s0.4,0.9,1,2.4c0.4,0.7,0.8,1.6,1.3,2.6
						c0.3,0.5,0.6,1,1,1.5c0.4,0.5,0.8,1,1.2,1.5c0.2,0.2,0.5,0.5,0.7,0.7c0.2,0.2,0.5,0.5,0.8,0.7c0.3,0.2,0.6,0.4,0.9,0.6
						c0.3,0.2,0.7,0.3,1,0.5c1.4,0.6,2.9,1,4.6,1c1.7,0,3.4-0.4,5.1-0.9c1.7-0.5,3.4-1.3,5-2.1c1.6-0.9,3.2-1.8,4.8-2.8
						c1.5-1,3-2,4.5-3c2.9-2,5.5-4,7.8-5.7c2.3-1.7,4.2-3,5.6-3.9c0.7-0.5,1.3-0.8,1.6-1C396,122.3,396.2,122.2,396.2,122.2z"/>
					<path class="st1" d="M354.7,114.8c0,0,0.9-1.6,2.4-3.7c0.4-0.5,0.8-1.1,1.2-1.8c0.5-0.6,1-1.2,1.5-1.9c0.5-0.6,1.1-1.3,1.7-2
						c0.6-0.6,1.2-1.3,1.8-2c0.6-0.6,1.3-1.2,1.9-1.8c0.6-0.6,1.3-1.2,1.9-1.7c0.6-0.6,1.2-1.1,1.8-1.5c0.6-0.5,1.2-0.9,1.8-1.3
						c2.2-1.5,3.7-2.4,3.7-2.4s-1.2,1.4-3.1,3.2c-0.5,0.5-1,1-1.5,1.5c-0.6,0.5-1.1,1.1-1.7,1.7c-0.6,0.6-1.1,1.2-1.8,1.8
						c-0.6,0.6-1.2,1.2-1.8,1.8c-0.6,0.6-1.2,1.3-1.8,1.9c-0.6,0.6-1.2,1.2-1.8,1.8c-0.6,0.6-1.1,1.1-1.7,1.7
						c-0.5,0.6-1,1.1-1.5,1.5C356.1,113.7,354.7,114.8,354.7,114.8z"/>
				</g>
			</g>
		</g>
		<g>
			<g>
				<path class="st2" d="M390.5,250c-10.8,35.8-25.3,68.2-41.1,99.3c-31.1,15.8-63.5,30.3-99.3,41.1c-35.8-10.8-68.2-25.3-99.3-41.1
					c-15.8-31.1-30.3-63.5-41.1-99.3c10.8-35.8,25.3-68.2,41.1-99.3c31.1-15.8,63.5-30.3,99.3-41.1c35.8,10.8,68.2,25.3,99.3,41.1
					C365.2,181.8,379.7,214.2,390.5,250z"/>
			</g>
			<g>
				<path class="st3" d="M382.6,250c-10.2,33.8-23.9,64.4-38.8,93.7c-29.4,14.9-59.9,28.6-93.7,38.8c-33.8-10.2-64.4-23.9-93.7-38.8
					c-14.9-29.3-28.6-59.9-38.8-93.7c10.2-33.8,23.9-64.4,38.8-93.7c29.3-14.9,59.9-28.6,93.7-38.8c33.8,10.2,64.4,23.9,93.7,38.8
					C358.7,185.6,372.4,216.2,382.6,250z"/>
			</g>
		</g>
		<g>
			<text transform="matrix(1 0 0 1 185.0703 228.0967)" class="st4 st5 st6">est.</text>
			<text transform="matrix(1 0 0 1 283.9668 228.0967)" class="st4 st5 st6">1980</text>
		</g>
		<g>
			<path class="st7" d="M410.4,267.9c0,0-71.6-41.5-159.4-42.1l0,0c-0.3,0-0.7,0-1,0c-0.3,0-0.7,0-1,0v0
				c-87.9,0.6-159.4,42.1-159.4,42.1l0.5,51.2l165.5-17.3l154.4,17.3L410.4,267.9z"/>
			<g>
				<g>
					<path class="st0" d="M141,277.7c1.1,4.2-1,8-4.9,10.2c0,0.1,0.1,0.2,0.1,0.3c5.2-0.7,9.5,1,10.9,6c1.7,6.3-2.9,10.6-9.2,12.5
						c-3,0.9-8,2.2-10.7,3.1c-2.3,0.7-4.3,1.7-4.3,1.7c-0.5-1.3-0.8-1.9-1.4-3.2c1.1-0.6,1.6-0.9,2.7-1.5c-0.1-0.7-0.6-3.2-0.9-4.2
						c-2.2-6.5-3.3-9.8-5.4-16.3c-0.6-1.9-1.6-4-2.2-5c-1.3,0.2-1.9,0.3-3.2,0.5c-0.4-1.4-0.6-2.2-0.9-3.6c0,0,2.4-0.6,4.9-1.4
						c2.3-0.7,8.2-3.1,10.5-3.8C133.2,271,139.6,272.5,141,277.7z M125.3,282.3c2,6.6,3.1,9.9,5.1,16.4c0.6,2.1,1.5,4.6,1.8,5.3
						c0.9-0.2,1.9-0.4,2.8-0.7c3.5-1.1,5.3-4,4.2-7.7c-1.2-4.2-4.5-4.7-8.2-3.6c-0.2,0.1-0.3,0.1-0.5,0.2c-0.4-1.7-0.5-2.5-0.9-4.2
						c0.1,0,0.2-0.1,0.3-0.1c3.3-1,4.8-3.5,3.7-7.5c-0.8-2.7-3.6-4.2-6.9-3.2c-0.9,0.3-1.7,0.6-2.5,1
						C124.3,278.6,125.1,281.4,125.3,282.3z"/>
					<path class="st0" d="M183.3,296.1c0,0-2.5,0.2-4.2,0.5c-5.9,1.1-10,2.2-10,2.2c-0.4-1.4-0.6-2.1-1-3.5c1.1-0.4,1.7-0.6,2.8-1
						c-0.3-1-0.5-1.5-0.8-2.5c-0.5-0.9-0.7-1.4-1.2-2.3c-3.8,0.8-5.7,1.2-9.5,2.1c-0.1,1.3-0.1,2-0.1,3.3c0.1,0.8,0.1,1.1,0.1,1.9
						c1.2,0,1.8-0.1,3-0.1c0.2,1.4,0.3,2.1,0.5,3.4c0,0-3,0.4-5.3,1c-4.2,1-6.7,1.9-6.7,1.9c-0.5-1.4-0.7-2.1-1.2-3.4
						c0.9-0.4,1.3-0.5,2.1-0.9c0.4-1.9,0.6-2.8,1-4.6c1-9.5,2.2-19,3.6-28.4c2.3-0.7,3.5-1.1,5.9-1.8c5.5,8.6,10.9,17.5,15.9,26.4
						c0.7,1,1,1.4,1.6,2.4c1.1,0,1.7,0,2.9-0.1C183.1,294,183.2,294.7,183.3,296.1z M159.9,287.3c2.8-0.7,4.1-1,6.9-1.6
						c-2.2-4.3-3.4-6.4-5.7-10.6C160.6,280,160.4,282.5,159.9,287.3z"/>
					<path class="st0" d="M210.7,267.1c0.4,4.2-1.9,7.7-5.4,10c2.9,4.3,6.1,8,6.4,8.4c0.8,1,1.2,1.5,2,2.6c1,0,1.5,0,2.4,0
						c0,1.5,0,2.3,0.1,3.8c0,0-3.9,0.1-9.5,0.7c0,0-2.3-4.3-3.1-5.4c-2-3-3.1-4.4-5.2-7.4c-0.3,0-0.5,0.1-0.8,0.1
						c-0.6,0.1-1.4,0.1-2.3,0.2c0.2,1.7,0.3,2.5,0.6,4.2c0.3,2.4,1,4.9,1.2,5.6c1.3-0.1,2-0.1,3.3-0.1c0.1,1.5,0.1,2.2,0.2,3.7
						c0,0-4.1,0.2-9.7,1.1c-2.3,0.4-4.9,1-4.9,1c-0.3-1.3-0.5-2-0.8-3.4c1.3-0.5,1.9-0.7,3.2-1.1c0-0.5,0-3.3-0.2-4.3
						c-1.1-6.8-1.6-10.2-2.6-17c-0.4-2.4-1.1-4.4-1.3-5.3c-1.4,0-2.1,0-3.6,0c-0.1-1.5-0.2-2.2-0.3-3.7c0,0,2.9-0.2,5.6-0.6
						c3.1-0.5,8.2-1.7,11.1-2C204.5,257.2,210,260.7,210.7,267.1z M193.2,262.8c0,1.5,0.2,3.8,0.3,4.4c0.5,3.5,0.7,5.3,1.2,8.8
						c0.5-0.1,0.7-0.1,1.2-0.2c4.9-0.7,6.7-3.3,6.2-7.8c-0.5-4.3-2.9-6.2-7.8-5.5C194.1,262.6,193.7,262.7,193.2,262.8z"/>
					<path class="st0" d="M244.8,263.4c0.1,4.3-3,7.5-7.2,8.6c0,0.1,0,0.2,0,0.3c5.1,0.6,8.9,3.3,9,8.5c0.1,6.6-5.4,9.6-11.9,9.8
						c-3,0.1-8.2,0.1-11.1,0.3c-2.3,0.2-4.6,0.6-4.6,0.6c-0.2-1.4-0.3-2.1-0.5-3.4c1.2-0.3,1.8-0.5,3-0.8c0.1-0.7,0.2-3.3,0.2-4.3
						c-0.5-6.9-0.7-10.3-1.2-17.2c-0.1-2-0.5-4.3-0.9-5.4c-1.3-0.1-1.9-0.2-3.2-0.4c0-1.5,0-2.2,0-3.7c0,0,2.5,0.1,5-0.1
						c2.3-0.2,8.6-1,11-1.1C239,255,244.8,258,244.8,263.4z M228.7,263.9c0.3,6.9,0.5,10.3,0.9,17.2c0.1,2.2,0.3,4.9,0.4,5.6
						c0.9,0.1,1.9,0.1,2.8,0c3.6-0.2,6-2.5,5.9-6.4c-0.1-4.4-3.1-5.7-7-5.5c-0.2,0-0.3,0-0.5,0c0.1-1.7,0.1-2.6,0.2-4.3
						c0.1,0,0.2,0,0.3,0c3.4-0.2,5.5-2.2,5.4-6.3c-0.1-2.8-2.5-5-5.8-4.8c-0.9,0-1.8,0.2-2.6,0.3C228.6,260.1,228.7,263,228.7,263.9
						z"/>
					<path class="st0" d="M281.1,291.6c0,0-2.4-0.4-4.2-0.6c-5.9-0.4-10.2-0.3-10.2-0.3c0-1.4-0.1-2.2-0.1-3.6
						c1.2-0.1,1.8-0.2,3-0.3c-0.1-1-0.1-1.5-0.1-2.6c-0.2-1-0.4-1.5-0.6-2.5c-3.9-0.2-5.8-0.2-9.7-0.3c-0.4,1.3-0.6,1.9-0.9,3.1
						c-0.1,0.7-0.2,1.1-0.3,1.9c1.2,0.3,1.7,0.4,2.9,0.7c-0.1,1.4-0.2,2.1-0.3,3.4c0,0-2.9-0.3-5.3-0.4c-4.3-0.1-7,0.2-7,0.2
						c-0.1-1.4-0.2-2.2-0.3-3.6c0.9-0.1,1.4-0.2,2.3-0.3c0.8-1.7,1.3-2.5,2.1-4.2c3.3-8.9,6.8-17.8,10.5-26.6
						c2.4-0.1,3.7-0.2,6.1-0.3c3.2,9.7,6.2,19.6,8.9,29.5c0.4,1.1,0.6,1.6,1,2.7c1.1,0.3,1.7,0.4,2.8,0.7
						C281.4,289.5,281.3,290.2,281.1,291.6z M260.7,277.4c2.8,0,4.2,0.1,7,0.1c-1.1-4.7-1.7-7-2.9-11.7
						C263.2,270.5,262.3,272.8,260.7,277.4z"/>
					<path class="st0" d="M309.4,293.7c-3.4,0.3-7.3,0.5-11.4,0.1c-10.2-1.1-16.8-9.8-16-19.8c0.8-10.6,9.9-17.7,20.4-16.2
						c4.6,0.7,8.1,2,11.5,3.3c-0.8,3.4-1.2,5.2-2,8.6c-1.6-0.3-2.4-0.5-4-0.8c0.1-1.2,0.2-1.8,0.3-3c0-0.3-0.2-1.4-0.4-2.1
						c-2.1-0.7-3.8-1.2-5.9-1.5c-6.6-0.8-9.7,4.9-10.5,12.4c-0.8,7.5,1,13.7,7.1,14.4c2.2,0.3,4,0.3,6.3,0.1
						c0.1-0.3,1.1-1.9,1.1-2.3c0.1-0.5,0.5-2.3,0.5-2.3c1.5,0.2,2.3,0.3,3.8,0.5C310,288.6,309.8,290.3,309.4,293.7z"/>
					<path class="st0" d="M355.9,272.5c-1.4-0.2-2.1-0.4-3.6-0.6c-0.3,0.6-1.2,2.8-1.4,3.8c-1.3,5.2-1.9,7.9-3.2,13.1
						c-2,8.2-8.2,12.2-17.6,10.3c-9.4-2-13.3-8.1-11.9-16.4c0.8-4.7,1.2-7.1,2-11.9c0.4-2.4,0.5-4.8,0.4-5.5c-1.3-0.5-2-0.7-3.4-1.2
						c0.3-1.4,0.5-2.2,0.9-3.6c0,0,2.8,0.7,5.4,1.1c6.1,1.1,10.7,1.8,10.7,1.8c-0.2,1.6-0.3,2.4-0.5,4c-1.4-0.2-2.1-0.2-3.6-0.4
						c-0.3,0.5-1,2.9-1.2,3.8c-1,5.5-1.6,8.2-2.6,13.7c-0.8,4.4,1.1,8.3,5.8,9.3c5.2,1.1,7.7-1.4,8.8-6.2c1.1-4.8,1.7-7.3,2.8-12.1
						c0.6-2.4,0.7-4.7,0.7-5.4c-1.3-0.5-2-0.8-3.3-1.3c0.4-1.4,0.6-2.1,1.1-3.6c0,0,2.8,0.9,5.3,1.5c6,1.4,9.2,2,9.2,2
						C356.3,270.2,356.2,271,355.9,272.5z"/>
					<path class="st0" d="M360.9,269.7c0,0,3.3,1.2,5.2,1.7c5.7,1.6,8.5,2.4,14.1,4.2c1.1,0.3,6.1,1.5,6.1,1.5
						c0.3,0.5,0.4,0.7,0.7,1.2c-0.8,3-1.3,4.4-2.1,7.4c-1.5-0.4-2.3-0.6-3.8-1c0.1-0.8,0.4-2.1,0.4-2.9c0-0.2,0-1.1-0.2-1.3
						c-0.4-0.5-2.5-1-4-1.5c-2.3-0.7-3.4-1.1-5.7-1.8c-0.3,0.8-1.1,3-1.4,3.8c-0.8,2.7-1.2,4.1-2,6.8c0.5,0.2,1.1,0.4,1.3,0.4
						c1.1,0.3,1.7,0.5,2.8,0.9c1,0.3,2.4,0.3,2.4,0.3c0.6-1.1,0.8-1.7,1.4-2.9c1.2,0.5,1.9,0.7,3.1,1.3c0,0-1,2.9-1.3,3.9
						c-0.8,2.3-1.8,6-1.8,6c-1.3-0.3-2-0.5-3.3-0.7c0.2-1.2,0.3-1.8,0.4-3c0,0-2.1-1-3.1-1.3c-0.6-0.2-0.9-0.3-1.6-0.5
						c-0.2,0-1.2-0.4-1.6-0.4c-0.7,2.3-1,3.5-1.7,5.8c-0.5,1.8-1.1,4.1-1.3,5c2.4,0.7,3.7,1.1,6.1,1.9c1.4,0.4,2.8,0.7,3.9,0.8
						c0.8-0.7,1.3-1.3,1.6-1.7c0.4-0.6,1.1-1.8,1.5-2.5c1.3,0.6,2,0.8,3.4,1.4c-1.4,3.2-2.1,4.8-3.5,8c-0.5,0.2-0.7,0.3-1.2,0.5
						c0,0-4.5-1.7-5.4-2c-5.4-1.7-8.2-2.6-13.7-4.1c-2.3-0.6-5-1.1-5-1.1c0.3-1.4,0.4-2,0.6-3.4c1.4,0.1,2,0.2,3.4,0.3
						c0.3-0.4,1.3-3,1.6-4c1.8-6.6,2.8-9.9,4.6-16.6c0.7-2.4,1-4.3,1-5.4c-1.3-0.6-2-0.9-3.3-1.5
						C360.2,271.8,360.5,271.1,360.9,269.7z"/>
				</g>
			</g>
		</g>
		<path id="SVGID_x5F_1_x5F_" class="st8" d="M346.7,274.8c-8.8,54.2-59.8,90.9-114,82.1c-54.2-8.8-90.9-59.8-82.1-114
			c8.8-54.2,59.8-90.9,114-82.1C318.7,169.6,355.4,220.6,346.7,274.8z"/>
		<text>		<textPath  xlink:href="#SVGID_x5F_1_x5F_" startOffset="78.2677%">
<tspan  class="st4 st11" style="font-size:24.9805px; letter-spacing:25;">grill steak house</tspan>		</textPath>
</text>
		<g>
			<path class="st0" d="M246.2,248.8c-12.3-0.4-29.4-13.5-18.8-28.7c5.6-7.9,13.2-11.6,15.2-22.1c1.7-7.9-1.7-11.6-7.3-17.2
				c15.2,5,31.4,21.8,21.8,38.6c5.3-0.3,8.9-9.6,8.9-14.2c10.2,16.2,19.1,40.9-8.3,43.9C253.1,249.5,250.8,249.5,246.2,248.8"/>
			<path class="st7" d="M248.8,249.2c7.4-0.3,17.6-8.1,11.3-17.2c-3.4-4.7-7.9-6.9-9.1-13.2c-1-4.7,1-6.9,4.4-10.3
				c-9.1,3-18.8,13-13,23.1c-3.2-0.2-5.3-5.7-5.3-8.5c-6.1,9.7-11.5,24.5,4.9,26.3C244.7,249.6,246.1,249.6,248.8,249.2"/>
		</g>
		<text transform="matrix(1 0 0 1 198.3271 349.5225)" class="st4 st9 st10">Los Angeles</text>
		<text transform="matrix(1 0 0 1 161.9082 323.0576)" class="st4 st11 st12">genuine old recipe</text>
		<path class="st1" d="M261.1,247.2c0,0,0.5-0.3,1.3-0.8c0.4-0.3,0.9-0.6,1.4-1c0.2-0.2,0.5-0.4,0.8-0.7c0.3-0.2,0.6-0.5,0.8-0.8
			c0.3-0.3,0.5-0.6,0.8-0.9c0.3-0.3,0.5-0.7,0.8-1.1c0.2-0.4,0.6-0.7,0.8-1.2c0.2-0.4,0.4-0.9,0.7-1.3c0.2-0.4,0.4-0.9,0.6-1.4
			c0.2-0.5,0.4-1,0.5-1.5c0.1-0.5,0.3-1,0.4-1.5l0.3-1.6c0.1-0.5,0.2-1.1,0.2-1.6c0-0.5,0.1-1.1,0.1-1.6c0-0.5,0-1.1,0.1-1.6
			c0-0.5,0-1,0-1.5c0-1-0.1-2-0.2-2.9c-0.1-0.9-0.2-1.8-0.3-2.6c-0.2-0.8-0.2-1.6-0.4-2.2c-0.2-0.6-0.3-1.2-0.4-1.7
			c-0.3-0.9-0.4-1.5-0.4-1.5s0.3,0.5,0.8,1.3c0.2,0.4,0.5,1,0.7,1.6c0.3,0.6,0.5,1.4,0.8,2.2c0.3,0.8,0.5,1.7,0.7,2.7
			c0.2,1,0.4,2,0.5,3c0.1,1.1,0.2,2.2,0.1,3.3c0,0.6-0.1,1.1-0.1,1.7c-0.1,0.6-0.1,1.1-0.2,1.7l-0.3,1.7c-0.2,0.6-0.3,1.1-0.5,1.7
			c-0.1,0.6-0.4,1.1-0.6,1.6c-0.2,0.5-0.4,1-0.7,1.5c-0.3,0.5-0.6,0.9-0.8,1.4c-0.3,0.5-0.7,0.8-1,1.2c-0.3,0.4-0.6,0.8-1,1.1
			c-0.4,0.3-0.7,0.6-1,0.9c-0.6,0.6-1.4,0.9-2,1.3c-0.6,0.4-1.2,0.6-1.6,0.7C261.7,247,261.1,247.2,261.1,247.2z"/>
		<path class="st1" d="M235.5,217.7c0,0,0-0.1,0.1-0.4c0-0.2,0.1-0.6,0.2-1.1c0.1-0.5,0.3-1,0.5-1.6c0.2-0.6,0.5-1.3,0.9-2
			c0.8-1.4,1.8-3,3-4.6c0.6-0.8,1.2-1.6,1.9-2.4c0.7-0.8,1.3-1.6,1.9-2.4c0.6-0.8,1.3-1.6,1.8-2.4c0.5-0.8,1.1-1.6,1.5-2.5
			c0.4-0.8,0.7-1.7,0.9-2.5c0.2-0.8,0.2-1.6,0.1-2.3c-0.1-0.7-0.3-1.4-0.5-1.9c-0.1-0.3-0.3-0.5-0.4-0.8c-0.1-0.2-0.3-0.4-0.4-0.6
			c-0.2-0.4-0.5-0.7-0.6-0.9c-0.1-0.2-0.2-0.3-0.2-0.3s0.1,0.1,0.3,0.2c0.2,0.2,0.5,0.4,0.8,0.7c0.2,0.2,0.3,0.4,0.5,0.6
			c0.2,0.2,0.4,0.5,0.6,0.7c0.2,0.3,0.4,0.6,0.6,0.9c0.2,0.3,0.3,0.7,0.4,1.1c0.2,0.8,0.3,1.8,0.2,2.8c-0.1,1-0.4,2-0.8,2.9
			c-0.4,1-0.9,1.9-1.5,2.8c-0.6,0.9-1.2,1.8-1.9,2.6c-0.7,0.8-1.3,1.6-2,2.4c-0.7,0.8-1.4,1.5-2,2.3c-1.3,1.5-2.5,2.9-3.4,4.1
			c-0.5,0.6-0.9,1.2-1.2,1.7c-0.3,0.5-0.6,1-0.8,1.4c-0.2,0.4-0.4,0.7-0.5,1C235.5,217.6,235.5,217.7,235.5,217.7z"/>
		<path class="st1" d="M238.8,245.6c0,0-0.3,0-0.7,0c-0.2,0-0.5,0-0.8-0.1c-0.3-0.1-0.7-0.2-1.1-0.4c-0.2-0.1-0.4-0.2-0.6-0.3
			c-0.2-0.1-0.4-0.3-0.6-0.4c-0.4-0.3-0.7-0.7-1.1-1.1c-0.2-0.2-0.3-0.5-0.4-0.7c-0.2-0.2-0.3-0.5-0.4-0.8c-0.2-0.5-0.3-1.1-0.4-1.7
			c0-0.6-0.1-1.2,0-1.7c0-0.6,0.3-1.1,0.4-1.6c0.2-0.5,0.4-1,0.8-1.3c0.2-0.2,0.3-0.4,0.5-0.5c0.2-0.1,0.4-0.3,0.5-0.4
			c0.3-0.3,0.7-0.4,1-0.6c0.3-0.2,0.6-0.2,0.8-0.3c0.5-0.1,0.7-0.1,0.7-0.1s-0.2,0.2-0.5,0.5c-0.2,0.1-0.4,0.3-0.6,0.5
			c-0.2,0.2-0.4,0.4-0.6,0.8c-0.1,0.1-0.2,0.3-0.3,0.4c-0.1,0.2-0.2,0.3-0.2,0.5c-0.2,0.3-0.3,0.8-0.4,1.1c-0.1,0.4-0.2,0.8-0.2,1.3
			c-0.1,0.4,0,0.9,0,1.3c0.1,0.4,0.1,0.9,0.3,1.3c0.1,0.4,0.3,0.8,0.5,1.2c0.2,0.3,0.4,0.7,0.6,1c0.2,0.3,0.5,0.6,0.7,0.8
			c0.2,0.3,0.5,0.4,0.7,0.6c0.2,0.2,0.5,0.3,0.7,0.4C238.6,245.4,238.8,245.6,238.8,245.6z"/>
	</g>
</g>
<g id="TEXTURE" class="st13">
</g>
</svg>
