<svg xmlns="http://www.w3.org/2000/svg" viewBox="0 0 1080 1080" width="1080" height="1080" preserveAspectRatio="xMidYMid meet" style="width: 100%; height: 100%; transform: translate3d(0px, 0px, 0px); content-visibility: visible;"><defs><clipPath id="__lottie_element_131"><rect width="1080" height="1080" x="0" y="0"></rect></clipPath><clipPath id="__lottie_element_160"><path d="M0,0 L1080,0 L1080,1080 L0,1080z"></path></clipPath></defs><g clip-path="url(#__lottie_element_131)"><g transform="matrix(0.9823022484779358,-0.22522516548633575,0.18774494528770447,0.934988796710968,550.4003295898438,553.7899780273438)" opacity="1" style="display: block;"><g opacity="1" transform="matrix(1,0,0,1,-108.82499694824219,173.97799682617188)"><path fill="rgb(218,242,242)" fill-opacity="1" d=" M260.80999755859375,-202.88699340820312 C260.80999755859375,-202.88699340820312 269.1960144042969,225.697998046875 269.1960144042969,225.697998046875 C269.1960144042969,225.697998046875 -257.3659973144531,205.8560028076172 -257.3659973144531,205.8560028076172 C-257.3659973144531,205.8560028076172 -253.1750030517578,-223.97799682617188 -253.1750030517578,-223.97799682617188 C-253.1750030517578,-223.97799682617188 -183.4709930419922,-293.8089904785156 -183.4709930419922,-293.8089904785156 C-183.4709930419922,-293.8089904785156 200.5189971923828,-273.822998046875 200.5189971923828,-273.822998046875 C200.5189971923828,-273.822998046875 260.80999755859375,-202.88699340820312 260.80999755859375,-202.88699340820312z"></path><path stroke-linecap="butt" stroke-linejoin="miter" fill-opacity="0" stroke-miterlimit="4" stroke="rgb(0,0,0)" stroke-opacity="1" stroke-width="3" d=" M260.80999755859375,-202.88699340820312 C260.80999755859375,-202.88699340820312 269.1960144042969,225.697998046875 269.1960144042969,225.697998046875 C269.1960144042969,225.697998046875 -257.3659973144531,205.8560028076172 -257.3659973144531,205.8560028076172 C-257.3659973144531,205.8560028076172 -253.1750030517578,-223.97799682617188 -253.1750030517578,-223.97799682617188 C-253.1750030517578,-223.97799682617188 -183.4709930419922,-293.8089904785156 -183.4709930419922,-293.8089904785156 C-183.4709930419922,-293.8089904785156 200.5189971923828,-273.822998046875 200.5189971923828,-273.822998046875 C200.5189971923828,-273.822998046875 260.80999755859375,-202.88699340820312 260.80999755859375,-202.88699340820312z"></path></g><g opacity="1" transform="matrix(1,0,0,1,0,0)"><path stroke-linecap="butt" stroke-linejoin="miter" fill-opacity="0" stroke-miterlimit="4" stroke="rgb(0,0,0)" stroke-opacity="1" stroke-width="3" d=" M-358.3330078125,-48.40599822998047 C-358.3330078125,-48.40599822998047 151.7899932861328,-28.202999114990234 151.7899932861328,-28.202999114990234"></path></g><g opacity="1" transform="matrix(1,0,0,1,0,0)"><path fill="rgb(255,255,255)" fill-opacity="1" d=" M-337.072998046875,-24.033000946044922 C-337.072998046875,-24.033000946044922 -337.0060119628906,63.685001373291016 -337.0060119628906,63.685001373291016 C-337.0060119628906,63.685001373291016 -183.01199340820312,71.9020004272461 -183.01199340820312,71.9020004272461 C-183.01199340820312,71.9020004272461 -184.052001953125,-16.051000595092773 -184.052001953125,-16.051000595092773 C-184.052001953125,-16.051000595092773 -337.072998046875,-24.033000946044922 -337.072998046875,-24.033000946044922z"></path><path stroke-linecap="butt" stroke-linejoin="miter" fill-opacity="0" stroke-miterlimit="4" stroke="rgb(0,0,0)" stroke-opacity="1" stroke-width="3" d=" M-337.072998046875,-24.033000946044922 C-337.072998046875,-24.033000946044922 -337.0060119628906,63.685001373291016 -337.0060119628906,63.685001373291016 C-337.0060119628906,63.685001373291016 -183.01199340820312,71.9020004272461 -183.01199340820312,71.9020004272461 C-183.01199340820312,71.9020004272461 -184.052001953125,-16.051000595092773 -184.052001953125,-16.051000595092773 C-184.052001953125,-16.051000595092773 -337.072998046875,-24.033000946044922 -337.072998046875,-24.033000946044922z"></path></g><g opacity="1" transform="matrix(1,0,0,1,0,0)"><path fill="rgb(234,234,234)" fill-opacity="1" d=" M-142.1219940185547,-85.09600067138672 C-142.1219940185547,-85.09600067138672 -151.70799255371094,-37.137001037597656 -151.70799255371094,-37.137001037597656 C-151.70799255371094,-37.137001037597656 -152.13099670410156,85.2229995727539 -152.13099670410156,85.2229995727539 C-152.13099670410156,85.2229995727539 -138.50599670410156,81.5530014038086 -138.50599670410156,81.5530014038086 C-138.50599670410156,81.5530014038086 -119.19100189208984,84.60099792480469 -119.19100189208984,84.60099792480469 C-119.19100189208984,84.60099792480469 -97.74199676513672,78.00299835205078 -97.74199676513672,78.00299835205078 C-97.74199676513672,78.00299835205078 -76.55599975585938,84.1760025024414 -76.55599975585938,84.1760025024414 C-76.55599975585938,84.1760025024414 -72.36199951171875,74.49099731445312 -72.36199951171875,74.49099731445312 C-72.36199951171875,74.49099731445312 -64.65299987792969,85.9739990234375 -64.65299987792969,85.9739990234375 C-64.65299987792969,85.9739990234375 -56.75400161743164,80.38899993896484 -56.75400161743164,80.38899993896484 C-56.75400161743164,80.38899993896484 -48.707000732421875,90.3489990234375 -48.707000732421875,90.3489990234375 C-48.707000732421875,90.3489990234375 -52.5880012512207,-35.72200012207031 -52.5880012512207,-35.72200012207031 C-52.5880012512207,-35.72200012207031 -62.840999603271484,-82.04199981689453 -62.840999603271484,-82.04199981689453 C-62.840999603271484,-82.04199981689453 -142.1219940185547,-85.09600067138672 -142.1219940185547,-85.09600067138672z"></path><path stroke-linecap="butt" stroke-linejoin="miter" fill-opacity="0" stroke-miterlimit="4" stroke="rgb(0,0,0)" stroke-opacity="1" stroke-width="3" d=" M-142.1219940185547,-85.09600067138672 C-142.1219940185547,-85.09600067138672 -151.70799255371094,-37.137001037597656 -151.70799255371094,-37.137001037597656 C-151.70799255371094,-37.137001037597656 -152.13099670410156,85.2229995727539 -152.13099670410156,85.2229995727539 C-152.13099670410156,85.2229995727539 -138.50599670410156,81.5530014038086 -138.50599670410156,81.5530014038086 C-138.50599670410156,81.5530014038086 -119.19100189208984,84.60099792480469 -119.19100189208984,84.60099792480469 C-119.19100189208984,84.60099792480469 -97.74199676513672,78.00299835205078 -97.74199676513672,78.00299835205078 C-97.74199676513672,78.00299835205078 -76.55599975585938,84.1760025024414 -76.55599975585938,84.1760025024414 C-76.55599975585938,84.1760025024414 -72.36199951171875,74.49099731445312 -72.36199951171875,74.49099731445312 C-72.36199951171875,74.49099731445312 -64.65299987792969,85.9739990234375 -64.65299987792969,85.9739990234375 C-64.65299987792969,85.9739990234375 -56.75400161743164,80.38899993896484 -56.75400161743164,80.38899993896484 C-56.75400161743164,80.38899993896484 -48.707000732421875,90.3489990234375 -48.707000732421875,90.3489990234375 C-48.707000732421875,90.3489990234375 -52.5880012512207,-35.72200012207031 -52.5880012512207,-35.72200012207031 C-52.5880012512207,-35.72200012207031 -62.840999603271484,-82.04199981689453 -62.840999603271484,-82.04199981689453 C-62.840999603271484,-82.04199981689453 -142.1219940185547,-85.09600067138672 -142.1219940185547,-85.09600067138672z"></path></g><g opacity="1" transform="matrix(1,0,0,1,48.70000076293945,298.8500061035156)"><path stroke-linecap="butt" stroke-linejoin="miter" fill-opacity="0" stroke-miterlimit="4" stroke="rgb(0,0,0)" stroke-opacity="1" stroke-width="3" d=" M68.9729995727539,-29.777000427246094 C68.9729995727539,-29.777000427246094 68.9729995727539,29.777000427246094 68.9729995727539,29.777000427246094 C68.9729995727539,40.814998626708984 60.0109977722168,49.777000427246094 48.972999572753906,49.777000427246094 C48.972999572753906,49.777000427246094 -48.972999572753906,49.777000427246094 -48.972999572753906,49.777000427246094 C-60.0109977722168,49.777000427246094 -68.9729995727539,40.814998626708984 -68.9729995727539,29.777000427246094 C-68.9729995727539,29.777000427246094 -68.9729995727539,-29.777000427246094 -68.9729995727539,-29.777000427246094 C-68.9729995727539,-40.814998626708984 -60.0109977722168,-49.777000427246094 -48.972999572753906,-49.777000427246094 C-48.972999572753906,-49.777000427246094 48.972999572753906,-49.777000427246094 48.972999572753906,-49.777000427246094 C60.0109977722168,-49.777000427246094 68.9729995727539,-40.814998626708984 68.9729995727539,-29.777000427246094z"></path></g><g opacity="1" transform="matrix(1,0,0,1,0,0)"><path fill="rgb(0,0,0)" fill-opacity="1" d=" M20.71299934387207,272.31500244140625 C13.923999786376953,271.99798583984375 6.9029998779296875,274.2699890136719 1.0609999895095825,277.74200439453125 C-3.5980000495910645,280.510009765625 -9.383999824523926,290.1990051269531 -9.383999824523926,290.1990051269531 C-9.383999824523926,290.1990051269531 -0.10100000351667404,294.5740051269531 -0.10100000351667404,294.5740051269531 C-0.10100000351667404,294.5740051269531 2.3239998817443848,289.7909851074219 4.540999889373779,289.80999755859375 C6.760000228881836,289.8290100097656 9.107000350952148,294.65301513671875 9.107000350952148,294.65301513671875 C9.107000350952148,294.65301513671875 13.060999870300293,289.7879943847656 15.807999610900879,289.8500061035156 C18.312000274658203,289.906005859375 21.347999572753906,294.9280090332031 21.347999572753906,294.9280090332031 C21.347999572753906,294.9280090332031 25.58799934387207,290.6199951171875 28.42300033569336,290.75 C30.499000549316406,290.8450012207031 35.04800033569336,295.5539855957031 35.04800033569336,295.5539855957031 C35.04800033569336,295.5539855957031 39.40399932861328,291.7070007324219 42.12300109863281,291.3760070800781 C44.78200149536133,291.052001953125 49.79600143432617,293.7590026855469 49.79600143432617,293.7590026855469 C49.79600143432617,293.7590026855469 44.30699920654297,283.0010070800781 39.61600112915039,279.5419921875 C34.1870002746582,275.53900146484375 27.451000213623047,272.6300048828125 20.71299934387207,272.31500244140625z"></path><path stroke-linecap="butt" stroke-linejoin="miter" fill-opacity="0" stroke-miterlimit="4" stroke="rgb(0,0,0)" stroke-opacity="1" stroke-width="3" d=" M20.71299934387207,272.31500244140625 C13.923999786376953,271.99798583984375 6.9029998779296875,274.2699890136719 1.0609999895095825,277.74200439453125 C-3.5980000495910645,280.510009765625 -9.383999824523926,290.1990051269531 -9.383999824523926,290.1990051269531 C-9.383999824523926,290.1990051269531 -0.10100000351667404,294.5740051269531 -0.10100000351667404,294.5740051269531 C-0.10100000351667404,294.5740051269531 2.3239998817443848,289.7909851074219 4.540999889373779,289.80999755859375 C6.760000228881836,289.8290100097656 9.107000350952148,294.65301513671875 9.107000350952148,294.65301513671875 C9.107000350952148,294.65301513671875 13.060999870300293,289.7879943847656 15.807999610900879,289.8500061035156 C18.312000274658203,289.906005859375 21.347999572753906,294.9280090332031 21.347999572753906,294.9280090332031 C21.347999572753906,294.9280090332031 25.58799934387207,290.6199951171875 28.42300033569336,290.75 C30.499000549316406,290.8450012207031 35.04800033569336,295.5539855957031 35.04800033569336,295.5539855957031 C35.04800033569336,295.5539855957031 39.40399932861328,291.7070007324219 42.12300109863281,291.3760070800781 C44.78200149536133,291.052001953125 49.79600143432617,293.7590026855469 49.79600143432617,293.7590026855469 C49.79600143432617,293.7590026855469 44.30699920654297,283.0010070800781 39.61600112915039,279.5419921875 C34.1870002746582,275.53900146484375 27.451000213623047,272.6300048828125 20.71299934387207,272.31500244140625z"></path></g><g opacity="1" transform="matrix(1,0,0,1,0,0)"><path stroke-linecap="butt" stroke-linejoin="miter" fill-opacity="0" stroke-miterlimit="4" stroke="rgb(0,0,0)" stroke-opacity="1" stroke-width="3" d=" M20.597000122070312,314.53399658203125 C20.597000122070312,314.53399658203125 22.097000122070312,289.22601318359375 22.097000122070312,289.22601318359375"></path></g><g opacity="1" transform="matrix(1,0,0,1,0,0)"><path stroke-linecap="butt" stroke-linejoin="miter" fill-opacity="0" stroke-miterlimit="4" stroke="rgb(0,0,0)" stroke-opacity="1" stroke-width="3" d=" M56.082000732421875,327.8940124511719 C56.082000732421875,327.8940124511719 104.21900177001953,330.39801025390625 104.21900177001953,330.39801025390625"></path></g><g opacity="1" transform="matrix(1,0,0,1,0,0)"><path fill="rgb(0,0,0)" fill-opacity="1" d=" M64.20899963378906,272.6319885253906 C64.20899963378906,272.6319885253906 54.41899871826172,291.3970031738281 54.41899871826172,291.3970031738281 C54.41899871826172,291.3970031738281 61.775001525878906,292.9010009765625 61.775001525878906,292.9010009765625 C61.775001525878906,292.9010009765625 60.36899948120117,316.62701416015625 60.36899948120117,316.62701416015625 C60.36899948120117,316.62701416015625 69.03399658203125,316.8429870605469 69.03399658203125,316.8429870605469 C69.03399658203125,316.8429870605469 69.41100311279297,293.135986328125 69.41100311279297,293.135986328125 C69.41100311279297,293.135986328125 75.94300079345703,292.5710144042969 75.94300079345703,292.5710144042969 C75.94300079345703,292.5710144042969 64.20899963378906,272.6319885253906 64.20899963378906,272.6319885253906z"></path><path stroke-linecap="butt" stroke-linejoin="miter" fill-opacity="0" stroke-miterlimit="4" stroke="rgb(0,0,0)" stroke-opacity="1" stroke-width="3" d=" M64.20899963378906,272.6319885253906 C64.20899963378906,272.6319885253906 54.41899871826172,291.3970031738281 54.41899871826172,291.3970031738281 C54.41899871826172,291.3970031738281 61.775001525878906,292.9010009765625 61.775001525878906,292.9010009765625 C61.775001525878906,292.9010009765625 60.36899948120117,316.62701416015625 60.36899948120117,316.62701416015625 C60.36899948120117,316.62701416015625 69.03399658203125,316.8429870605469 69.03399658203125,316.8429870605469 C69.03399658203125,316.8429870605469 69.41100311279297,293.135986328125 69.41100311279297,293.135986328125 C69.41100311279297,293.135986328125 75.94300079345703,292.5710144042969 75.94300079345703,292.5710144042969 C75.94300079345703,292.5710144042969 64.20899963378906,272.6319885253906 64.20899963378906,272.6319885253906z"></path></g><g opacity="1" transform="matrix(1,0,0,1,29.422000885009766,-0.7649999856948853)"><path fill="rgb(0,0,0)" fill-opacity="1" d=" M64.20899963378906,272.6319885253906 C64.20899963378906,272.6319885253906 54.41899871826172,291.3970031738281 54.41899871826172,291.3970031738281 C54.41899871826172,291.3970031738281 61.775001525878906,292.9010009765625 61.775001525878906,292.9010009765625 C61.775001525878906,292.9010009765625 60.36899948120117,316.62701416015625 60.36899948120117,316.62701416015625 C60.36899948120117,316.62701416015625 69.03399658203125,316.8429870605469 69.03399658203125,316.8429870605469 C69.03399658203125,316.8429870605469 69.41100311279297,293.135986328125 69.41100311279297,293.135986328125 C69.41100311279297,293.135986328125 75.94300079345703,292.5710144042969 75.94300079345703,292.5710144042969 C75.94300079345703,292.5710144042969 64.20899963378906,272.6319885253906 64.20899963378906,272.6319885253906z"></path><path stroke-linecap="butt" stroke-linejoin="miter" fill-opacity="0" stroke-miterlimit="4" stroke="rgb(0,0,0)" stroke-opacity="1" stroke-width="3" d=" M64.20899963378906,272.6319885253906 C64.20899963378906,272.6319885253906 54.41899871826172,291.3970031738281 54.41899871826172,291.3970031738281 C54.41899871826172,291.3970031738281 61.775001525878906,292.9010009765625 61.775001525878906,292.9010009765625 C61.775001525878906,292.9010009765625 60.36899948120117,316.62701416015625 60.36899948120117,316.62701416015625 C60.36899948120117,316.62701416015625 69.03399658203125,316.8429870605469 69.03399658203125,316.8429870605469 C69.03399658203125,316.8429870605469 69.41100311279297,293.135986328125 69.41100311279297,293.135986328125 C69.41100311279297,293.135986328125 75.94300079345703,292.5710144042969 75.94300079345703,292.5710144042969 C75.94300079345703,292.5710144042969 64.20899963378906,272.6319885253906 64.20899963378906,272.6319885253906z"></path></g><g opacity="1" transform="matrix(1,0,0,1,0,0)"><path fill="rgb(0,0,0)" fill-opacity="1" d=" M-324.0480041503906,-13.409000396728516 C-324.0480041503906,-13.409000396728516 -323.8299865722656,55.09400177001953 -323.8299865722656,55.09400177001953"></path><path stroke-linecap="butt" stroke-linejoin="miter" fill-opacity="0" stroke-miterlimit="4" stroke="rgb(0,0,0)" stroke-opacity="1" stroke-width="3" d=" M-324.0480041503906,-13.409000396728516 C-324.0480041503906,-13.409000396728516 -323.8299865722656,55.09400177001953 -323.8299865722656,55.09400177001953"></path></g><g opacity="1" transform="matrix(1,0,0,1,0,0)"><path fill="rgb(0,0,0)" fill-opacity="1" d=" M-311.9200134277344,-12.62600040435791 C-311.9200134277344,-12.62600040435791 -311.7019958496094,55.87699890136719 -311.7019958496094,55.87699890136719"></path><path stroke-linecap="butt" stroke-linejoin="miter" fill-opacity="0" stroke-miterlimit="4" stroke="rgb(0,0,0)" stroke-opacity="1" stroke-width="11" d=" M-311.9200134277344,-12.62600040435791 C-311.9200134277344,-12.62600040435791 -311.7019958496094,55.87699890136719 -311.7019958496094,55.87699890136719"></path></g><g opacity="1" transform="matrix(1,0,0,1,0,0)"><path fill="rgb(0,0,0)" fill-opacity="1" d=" M-297.84600830078125,-11.375 C-297.84600830078125,-11.375 -297.1780090332031,55.09700012207031 -297.1780090332031,55.09700012207031"></path><path stroke-linecap="butt" stroke-linejoin="miter" fill-opacity="0" stroke-miterlimit="4" stroke="rgb(0,0,0)" stroke-opacity="1" stroke-width="7" d=" M-297.84600830078125,-11.375 C-297.84600830078125,-11.375 -297.1780090332031,55.09700012207031 -297.1780090332031,55.09700012207031"></path></g><g opacity="1" transform="matrix(1,0,0,1,0,0)"><path fill="rgb(0,0,0)" fill-opacity="1" d=" M-284.7449951171875,-10.357999801635742 C-284.7449951171875,-10.357999801635742 -284.0769958496094,56.11399841308594 -284.0769958496094,56.11399841308594"></path><path stroke-linecap="butt" stroke-linejoin="miter" fill-opacity="0" stroke-miterlimit="4" stroke="rgb(0,0,0)" stroke-opacity="1" stroke-width="7" d=" M-284.7449951171875,-10.357999801635742 C-284.7449951171875,-10.357999801635742 -284.0769958496094,56.11399841308594 -284.0769958496094,56.11399841308594"></path></g><g opacity="1" transform="matrix(1,0,0,1,0,0)"><path fill="rgb(0,0,0)" fill-opacity="1" d=" M-269.6969909667969,-8.873000144958496 C-269.6969909667969,-8.873000144958496 -269.77801513671875,56.349998474121094 -269.77801513671875,56.349998474121094"></path><path stroke-linecap="butt" stroke-linejoin="miter" fill-opacity="0" stroke-miterlimit="4" stroke="rgb(0,0,0)" stroke-opacity="1" stroke-width="7" d=" M-269.6969909667969,-8.873000144958496 C-269.6969909667969,-8.873000144958496 -269.77801513671875,56.349998474121094 -269.77801513671875,56.349998474121094"></path></g><g opacity="1" transform="matrix(1,0,0,1,0,0)"><path fill="rgb(0,0,0)" fill-opacity="1" d=" M-253.45199584960938,-8.168000221252441 C-253.45199584960938,-8.168000221252441 -254.13099670410156,57.44499969482422 -254.13099670410156,57.44499969482422"></path><path stroke-linecap="butt" stroke-linejoin="miter" fill-opacity="0" stroke-miterlimit="4" stroke="rgb(0,0,0)" stroke-opacity="1" stroke-width="13" d=" M-253.45199584960938,-8.168000221252441 C-253.45199584960938,-8.168000221252441 -254.13099670410156,57.44499969482422 -254.13099670410156,57.44499969482422"></path></g><g opacity="1" transform="matrix(0.9989799857139587,0,0,0.9738100171089172,73.7249984741211,3.6549999713897705)"><path fill="rgb(0,0,0)" fill-opacity="1" d=" M-311.7699890136719,-10.942000389099121 C-311.7699890136719,-10.942000389099121 -311.7019958496094,55.87699890136719 -311.7019958496094,55.87699890136719"></path><path stroke-linecap="butt" stroke-linejoin="miter" fill-opacity="0" stroke-miterlimit="4" stroke="rgb(0,0,0)" stroke-opacity="1" stroke-width="11" d=" M-311.7699890136719,-10.942000389099121 C-311.7699890136719,-10.942000389099121 -311.7019958496094,55.87699890136719 -311.7019958496094,55.87699890136719"></path></g><g opacity="1" transform="matrix(1,0,0,1,73.7249984741211,3.6549999713897705)"><path fill="rgb(0,0,0)" fill-opacity="1" d=" M-297.84600830078125,-11.375 C-297.84600830078125,-11.375 -297.1780090332031,55.09700012207031 -297.1780090332031,55.09700012207031"></path><path stroke-linecap="butt" stroke-linejoin="miter" fill-opacity="0" stroke-miterlimit="4" stroke="rgb(0,0,0)" stroke-opacity="1" stroke-width="7" d=" M-297.84600830078125,-11.375 C-297.84600830078125,-11.375 -297.1780090332031,55.09700012207031 -297.1780090332031,55.09700012207031"></path></g><g opacity="1" transform="matrix(1,0,0,1,73.7249984741211,3.6549999713897705)"><path fill="rgb(0,0,0)" fill-opacity="1" d=" M-284.7449951171875,-10.357999801635742 C-284.7449951171875,-10.357999801635742 -284.0769958496094,56.11399841308594 -284.0769958496094,56.11399841308594"></path><path stroke-linecap="butt" stroke-linejoin="miter" fill-opacity="0" stroke-miterlimit="4" stroke="rgb(0,0,0)" stroke-opacity="1" stroke-width="7" d=" M-284.7449951171875,-10.357999801635742 C-284.7449951171875,-10.357999801635742 -284.0769958496094,56.11399841308594 -284.0769958496094,56.11399841308594"></path></g><g opacity="1" transform="matrix(1,0,0,1,73.7249984741211,3.6549999713897705)"><path fill="rgb(0,0,0)" fill-opacity="1" d=" M-269.6969909667969,-8.873000144958496 C-269.6969909667969,-8.873000144958496 -269.77801513671875,56.349998474121094 -269.77801513671875,56.349998474121094"></path><path stroke-linecap="butt" stroke-linejoin="miter" fill-opacity="0" stroke-miterlimit="4" stroke="rgb(0,0,0)" stroke-opacity="1" stroke-width="7" d=" M-269.6969909667969,-8.873000144958496 C-269.6969909667969,-8.873000144958496 -269.77801513671875,56.349998474121094 -269.77801513671875,56.349998474121094"></path></g></g><g transform="matrix(1.0000008344650269,-0.00000560278613193077,-0.03006867878139019,1.0000041723251343,539.9991455078125,633.2357788085938)" opacity="1" style="display: block;"><g opacity="1" transform="matrix(1,0,0,1,0,0)"><path fill="rgb(254,204,180)" fill-opacity="1" d=" M-15,189 C-26.663999557495117,190.52099609375 -37.3120002746582,196.58799743652344 -48,201.5 C-64.18699645996094,208.94000244140625 -95.5,226 -95.5,226 C-95.5,226 -143.5,209.5 -143.5,209.5 C-143.5,209.5 -171.5,298 -171.5,298 C-171.5,298 -136.7740020751953,307.6310119628906 -119.75,313.5 C-109.9020004272461,316.8949890136719 -100.31700134277344,321.09100341796875 -91,325.75 C-80.95099639892578,330.7749938964844 -71.93399810791016,337.7550048828125 -61.75,342.5 C-48.619998931884766,348.6180114746094 -35.09700012207031,353.99798583984375 -21.25,358.25 C-14.895999908447266,360.20098876953125 -8.147000312805176,361 -1.5,361 C3.010999917984009,361 7.765999794006348,360.364990234375 11.75,358.25 C14.880000114440918,356.5889892578125 18.75,350.25 18.75,350.25 C18.75,350.25 9,342.75 9,342.75 C9,342.75 19.889999389648438,349.2959899902344 26,350.5 C31.249000549316406,351.53399658203125 36.90399932861328,350.8789978027344 42,349.25 C47.33700180053711,347.54400634765625 56.5,340.75 56.5,340.75 C56.5,340.75 39.5,331.75 39.5,331.75 C39.5,331.75 58.19599914550781,340.4389953613281 68.25,342 C72.26100158691406,342.62298583984375 76.45600128173828,340.3699951171875 79.75,338 C83.54299926757812,335.27099609375 88.75,327.25 88.75,327.25 C88.75,327.25 65,320 65,320 C65,320 87.36100006103516,328.2820129394531 99,328 C108.85299682617188,327.7619934082031 119.04900360107422,324.3240051269531 127,318.5 C134.16000366210938,313.2550048828125 137.76300048828125,304.29901123046875 142,296.5 C145.14700317382812,290.70599365234375 149,278 149,278 C149,278 134.5,280.5 134.5,280.5 C134.5,280.5 129.89700317382812,284.66900634765625 127,285 C123.58599853515625,285.3900146484375 117,282.5 117,282.5 C117,282.5 40,246.5 40,246.5 C40,246.5 28,222.5 28,222.5 C28,222.5 40,244.5 40,244.5 C40,244.5 56.5,236 56.5,236 C56.5,236 75.88800048828125,248.697998046875 87,250.5 C95.4229965209961,251.86599731445312 104.80500030517578,249.58599853515625 112,245 C120.76599884033203,239.41299438476562 135.19200134277344,230.00599670410156 130,221 C119.5,211 103.0739974975586,207.25 87.5,202.5 C69.58499908447266,197.03599548339844 51.069000244140625,193.4459991455078 32.5,191 C16.788000106811523,188.93099975585938 0.7139999866485596,186.9499969482422 -15,189z"></path><path stroke-linecap="butt" stroke-linejoin="miter" fill-opacity="0" stroke-miterlimit="4" stroke="rgb(0,0,0)" stroke-opacity="1" stroke-width="3" d=" M-15,189 C-26.663999557495117,190.52099609375 -37.3120002746582,196.58799743652344 -48,201.5 C-64.18699645996094,208.94000244140625 -95.5,226 -95.5,226 C-95.5,226 -143.5,209.5 -143.5,209.5 C-143.5,209.5 -171.5,298 -171.5,298 C-171.5,298 -136.7740020751953,307.6310119628906 -119.75,313.5 C-109.9020004272461,316.8949890136719 -100.31700134277344,321.09100341796875 -91,325.75 C-80.95099639892578,330.7749938964844 -71.93399810791016,337.7550048828125 -61.75,342.5 C-48.619998931884766,348.6180114746094 -35.09700012207031,353.99798583984375 -21.25,358.25 C-14.895999908447266,360.20098876953125 -8.147000312805176,361 -1.5,361 C3.010999917984009,361 7.765999794006348,360.364990234375 11.75,358.25 C14.880000114440918,356.5889892578125 18.75,350.25 18.75,350.25 C18.75,350.25 9,342.75 9,342.75 C9,342.75 19.889999389648438,349.2959899902344 26,350.5 C31.249000549316406,351.53399658203125 36.90399932861328,350.8789978027344 42,349.25 C47.33700180053711,347.54400634765625 56.5,340.75 56.5,340.75 C56.5,340.75 39.5,331.75 39.5,331.75 C39.5,331.75 58.19599914550781,340.4389953613281 68.25,342 C72.26100158691406,342.62298583984375 76.45600128173828,340.3699951171875 79.75,338 C83.54299926757812,335.27099609375 88.75,327.25 88.75,327.25 C88.75,327.25 65,320 65,320 C65,320 87.36100006103516,328.2820129394531 99,328 C108.85299682617188,327.7619934082031 119.04900360107422,324.3240051269531 127,318.5 C134.16000366210938,313.2550048828125 137.76300048828125,304.29901123046875 142,296.5 C145.14700317382812,290.70599365234375 149,278 149,278 C149,278 134.5,280.5 134.5,280.5 C134.5,280.5 129.89700317382812,284.66900634765625 127,285 C123.58599853515625,285.3900146484375 117,282.5 117,282.5 C117,282.5 40,246.5 40,246.5 C40,246.5 28,222.5 28,222.5 C28,222.5 40,244.5 40,244.5 C40,244.5 56.5,236 56.5,236 C56.5,236 75.88800048828125,248.697998046875 87,250.5 C95.4229965209961,251.86599731445312 104.80500030517578,249.58599853515625 112,245 C120.76599884033203,239.41299438476562 135.19200134277344,230.00599670410156 130,221 C119.5,211 103.0739974975586,207.25 87.5,202.5 C69.58499908447266,197.03599548339844 51.069000244140625,193.4459991455078 32.5,191 C16.788000106811523,188.93099975585938 0.7139999866485596,186.9499969482422 -15,189z"></path></g></g><g transform="matrix(0.9122926592826843,0.46483632922172546,-0.48285070061683655,0.9476478099822998,364.1451416015625,625.029052734375)" opacity="1" style="display: block;"><g opacity="1" transform="matrix(1,0,0,1,0,0)"><path fill="rgb(4,89,103)" fill-opacity="1" d=" M-206.99200439453125,176.6750030517578 C-239.8979949951172,176.7209930419922 -305.6910095214844,178.65699768066406 -305.6910095214844,178.65699768066406 C-305.6910095214844,178.65699768066406 -206.3040008544922,374.7229919433594 -206.3040008544922,374.7229919433594 C-206.3040008544922,374.7229919433594 -129.8560028076172,370.1570129394531 -91.94100189208984,365.0570068359375 C-72.41600036621094,362.4309997558594 -53.301998138427734,359.1679992675781 -34.374000549316406,353.7030029296875 C-14.902000427246094,348.08099365234375 4.436999797821045,340.3009948730469 23.108999252319336,331.8380126953125 C42.22800064086914,323.1730041503906 78.78700256347656,302.4169921875 78.78700256347656,302.4169921875 C78.78700256347656,302.4169921875 52.91600036621094,178.97999572753906 52.91600036621094,178.97999572753906 C52.91600036621094,178.97999572753906 -43.76499938964844,178.78700256347656 -92.10299682617188,178.35800170898438 C-130.40199279785156,178.01800537109375 -168.69200134277344,176.62100219726562 -206.99200439453125,176.6750030517578z"></path><path stroke-linecap="butt" stroke-linejoin="miter" fill-opacity="0" stroke-miterlimit="4" stroke="rgb(0,0,0)" stroke-opacity="1" stroke-width="3" d=" M-206.99200439453125,176.6750030517578 C-239.8979949951172,176.7209930419922 -305.6910095214844,178.65699768066406 -305.6910095214844,178.65699768066406 C-305.6910095214844,178.65699768066406 -206.3040008544922,374.7229919433594 -206.3040008544922,374.7229919433594 C-206.3040008544922,374.7229919433594 -129.8560028076172,370.1570129394531 -91.94100189208984,365.0570068359375 C-72.41600036621094,362.4309997558594 -53.301998138427734,359.1679992675781 -34.374000549316406,353.7030029296875 C-14.902000427246094,348.08099365234375 4.436999797821045,340.3009948730469 23.108999252319336,331.8380126953125 C42.22800064086914,323.1730041503906 78.78700256347656,302.4169921875 78.78700256347656,302.4169921875 C78.78700256347656,302.4169921875 52.91600036621094,178.97999572753906 52.91600036621094,178.97999572753906 C52.91600036621094,178.97999572753906 -43.76499938964844,178.78700256347656 -92.10299682617188,178.35800170898438 C-130.40199279785156,178.01800537109375 -168.69200134277344,176.62100219726562 -206.99200439453125,176.6750030517578z"></path></g><g opacity="1" transform="matrix(1,0,0,1,0,0)"><path fill="rgb(2,69,80)" fill-opacity="1" d=" M124.9000015258789,167.94200134277344 C124.9000015258789,167.94200134277344 49.582000732421875,171.64599609375 49.582000732421875,171.64599609375 C49.582000732421875,171.64599609375 80.14199829101562,308.0840148925781 80.14199829101562,308.0840148925781 C80.14199829101562,308.0840148925781 99.427001953125,300.58099365234375 111.28900146484375,297.5539855957031 C120.45999908447266,295.2139892578125 142.91299438476562,292.0669860839844 142.91299438476562,292.0669860839844 C142.91299438476562,292.0669860839844 142.2480010986328,248.44500732421875 139.12399291992188,226.91700744628906 C136.22000122070312,206.9040069580078 124.9000015258789,167.94200134277344 124.9000015258789,167.94200134277344z"></path><path stroke-linecap="butt" stroke-linejoin="miter" fill-opacity="0" stroke-miterlimit="4" stroke="rgb(0,0,0)" stroke-opacity="1" stroke-width="3" d=" M124.9000015258789,167.94200134277344 C124.9000015258789,167.94200134277344 49.582000732421875,171.64599609375 49.582000732421875,171.64599609375 C49.582000732421875,171.64599609375 80.14199829101562,308.0840148925781 80.14199829101562,308.0840148925781 C80.14199829101562,308.0840148925781 99.427001953125,300.58099365234375 111.28900146484375,297.5539855957031 C120.45999908447266,295.2139892578125 142.91299438476562,292.0669860839844 142.91299438476562,292.0669860839844 C142.91299438476562,292.0669860839844 142.2480010986328,248.44500732421875 139.12399291992188,226.91700744628906 C136.22000122070312,206.9040069580078 124.9000015258789,167.94200134277344 124.9000015258789,167.94200134277344z"></path></g><g opacity="1" transform="matrix(1,0,0,1,106.41899871826172,279.5849914550781)"><path fill="rgb(0,0,0)" fill-opacity="1" d=" M0,-5.709499835968018 C3.3210582733154297,-5.709499835968018 6.017499923706055,-3.1510729789733887 6.017499923706055,0 C6.017499923706055,3.1510729789733887 3.3210582733154297,5.709499835968018 0,5.709499835968018 C-3.3210582733154297,5.709499835968018 -6.017499923706055,3.1510729789733887 -6.017499923706055,0 C-6.017499923706055,-3.1510729789733887 -3.3210582733154297,-5.709499835968018 0,-5.709499835968018z"></path><path stroke-linecap="butt" stroke-linejoin="miter" fill-opacity="0" stroke-miterlimit="4" stroke="rgb(0,0,0)" stroke-opacity="1" stroke-width="3" d=" M0,-5.709499835968018 C3.3210582733154297,-5.709499835968018 6.017499923706055,-3.1510729789733887 6.017499923706055,0 C6.017499923706055,3.1510729789733887 3.3210582733154297,5.709499835968018 0,5.709499835968018 C-3.3210582733154297,5.709499835968018 -6.017499923706055,3.1510729789733887 -6.017499923706055,0 C-6.017499923706055,-3.1510729789733887 -3.3210582733154297,-5.709499835968018 0,-5.709499835968018z"></path></g></g><g transform="matrix(1,0,0,1,540,579.047607421875)" opacity="1" style="display: block;"><g opacity="1" transform="matrix(1,0,0,1,0,0)"><path fill="rgb(133,213,216)" fill-opacity="1" d=" M540,-368 C540,-368 502.5889892578125,-351.4230041503906 483,-345 C461.7969970703125,-338.0480041503906 418,-328 418,-328 C418,-328 415,-191 415,-191 C415,-191 454.9700012207031,-187.2519989013672 475,-186 C497.6449890136719,-184.5850067138672 543,-183 543,-183 C543,-183 540,-368 540,-368z"></path><path stroke-linecap="butt" stroke-linejoin="miter" fill-opacity="0" stroke-miterlimit="4" stroke="rgb(0,0,0)" stroke-opacity="1" stroke-width="3" d=" M540,-368 C540,-368 502.5889892578125,-351.4230041503906 483,-345 C461.7969970703125,-338.0480041503906 418,-328 418,-328 C418,-328 415,-191 415,-191 C415,-191 454.9700012207031,-187.2519989013672 475,-186 C497.6449890136719,-184.5850067138672 543,-183 543,-183 C543,-183 540,-368 540,-368z"></path></g><g opacity="1" transform="matrix(1,0,0,1,0,0)"><path fill="rgb(120,194,197)" fill-opacity="1" d=" M420,-337 C420,-337 392.6390075683594,-329.7690124511719 379,-326 C367.30499267578125,-322.76800537109375 344,-316 344,-316 C344,-316 337,-273 341,-252 C345.49798583984375,-228.38299560546875 360,-185 360,-185 C360,-185 417,-184 417,-184 C417,-184 415.52899169921875,-232.0019989013672 416,-256 C416.5299987792969,-283.02801513671875 420,-337 420,-337z"></path><path stroke-linecap="butt" stroke-linejoin="miter" fill-opacity="0" stroke-miterlimit="4" stroke="rgb(0,0,0)" stroke-opacity="1" stroke-width="3" d=" M420,-337 C420,-337 392.6390075683594,-329.7690124511719 379,-326 C367.30499267578125,-322.76800537109375 344,-316 344,-316 C344,-316 337,-273 341,-252 C345.49798583984375,-228.38299560546875 360,-185 360,-185 C360,-185 417,-184 417,-184 C417,-184 415.52899169921875,-232.0019989013672 416,-256 C416.5299987792969,-283.02801513671875 420,-337 420,-337z"></path></g><g opacity="1" transform="matrix(1,0,0,1,383.1659851074219,-205.86300659179688)"><path fill="rgb(0,0,0)" fill-opacity="1" d=" M0,-7.63700008392334 C3.9549152851104736,-7.63700008392334 7.165999889373779,-4.214860439300537 7.165999889373779,0 C7.165999889373779,4.214860439300537 3.9549152851104736,7.63700008392334 0,7.63700008392334 C-3.9549152851104736,7.63700008392334 -7.165999889373779,4.214860439300537 -7.165999889373779,0 C-7.165999889373779,-4.214860439300537 -3.9549152851104736,-7.63700008392334 0,-7.63700008392334z"></path><path stroke-linecap="butt" stroke-linejoin="miter" fill-opacity="0" stroke-miterlimit="4" stroke="rgb(0,0,0)" stroke-opacity="1" stroke-width="3" d=" M0,-7.63700008392334 C3.9549152851104736,-7.63700008392334 7.165999889373779,-4.214860439300537 7.165999889373779,0 C7.165999889373779,4.214860439300537 3.9549152851104736,7.63700008392334 0,7.63700008392334 C-3.9549152851104736,7.63700008392334 -7.165999889373779,4.214860439300537 -7.165999889373779,0 C-7.165999889373779,-4.214860439300537 -3.9549152851104736,-7.63700008392334 0,-7.63700008392334z"></path></g></g><g transform="matrix(1,0,0,1,540,579.047607421875)" opacity="1" style="display: block;"><g opacity="1" transform="matrix(1,0,0,1,0,0)"><path fill="rgb(254,204,180)" fill-opacity="1" d=" M343.5,-292 C343.5,-292 341.5,-312.5 341.5,-312.5 C341.5,-312.5 302.7510070800781,-305.1650085449219 289.5,-310.5 C237.31700134277344,-331.510009765625 151.5,-389 151.5,-389 C151.5,-389 139.58900451660156,-395.760009765625 134.5,-395 C123.87200164794922,-393.4119873046875 108,-382.5 108,-382.5 C108,-382.5 42,-260.5 42,-260.5 C42,-260.5 56.40599822998047,-230.49099731445312 68,-219 C75.99500274658203,-211.0749969482422 98.5,-204.5 98.5,-204.5 C98.5,-204.5 114.02999877929688,-201.91900634765625 116,-207.5 C118.66799926757812,-215.05999755859375 107.5,-230 107.5,-230 C107.5,-230 135.5,-216 135.5,-216 C135.5,-216 147.7259979248047,-216.6699981689453 151,-221 C154.11599731445312,-225.12100219726562 151,-236.5 151,-236.5 C151,-236.5 126,-272 126,-272 C126,-272 155,-310 155,-310 C155,-310 178.43600463867188,-311.02801513671875 181.5,-315.5"></path><path stroke-linecap="butt" stroke-linejoin="miter" fill-opacity="0" stroke-miterlimit="4" stroke="rgb(0,0,0)" stroke-opacity="1" stroke-width="3" d=" M343.5,-292 C343.5,-292 341.5,-312.5 341.5,-312.5 C341.5,-312.5 302.7510070800781,-305.1650085449219 289.5,-310.5 C237.31700134277344,-331.510009765625 151.5,-389 151.5,-389 C151.5,-389 139.58900451660156,-395.760009765625 134.5,-395 C123.87200164794922,-393.4119873046875 108,-382.5 108,-382.5 C108,-382.5 42,-260.5 42,-260.5 C42,-260.5 56.40599822998047,-230.49099731445312 68,-219 C75.99500274658203,-211.0749969482422 98.5,-204.5 98.5,-204.5 C98.5,-204.5 114.02999877929688,-201.91900634765625 116,-207.5 C118.66799926757812,-215.05999755859375 107.5,-230 107.5,-230 C107.5,-230 135.5,-216 135.5,-216 C135.5,-216 147.7259979248047,-216.6699981689453 151,-221 C154.11599731445312,-225.12100219726562 151,-236.5 151,-236.5 C151,-236.5 126,-272 126,-272 C126,-272 155,-310 155,-310 C155,-310 178.43600463867188,-311.02801513671875 181.5,-315.5"></path></g></g><g transform="matrix(0.9986295104026794,0.0523359552025795,-0.05573099106550217,1.0634106397628784,502.4626770019531,675.242919921875)" opacity="1" style="display: block;"><g opacity="1" transform="matrix(1,0,0,1,-36.27199935913086,-362.64898681640625)"><path fill="rgb(106,182,114)" fill-opacity="1" d=" M190.23849487304688,-76.38700103759766 C190.23849487304688,-76.38700103759766 190.23849487304688,76.38700103759766 190.23849487304688,76.38700103759766 C190.23849487304688,76.38700103759766 -190.23849487304688,76.38700103759766 -190.23849487304688,76.38700103759766 C-190.23849487304688,76.38700103759766 -190.23849487304688,-76.38700103759766 -190.23849487304688,-76.38700103759766 C-190.23849487304688,-76.38700103759766 190.23849487304688,-76.38700103759766 190.23849487304688,-76.38700103759766z"></path><path stroke-linecap="butt" stroke-linejoin="miter" fill-opacity="0" stroke-miterlimit="4" stroke="rgb(0,0,0)" stroke-opacity="1" stroke-width="3" d=" M190.23849487304688,-76.38700103759766 C190.23849487304688,-76.38700103759766 190.23849487304688,76.38700103759766 190.23849487304688,76.38700103759766 C190.23849487304688,76.38700103759766 -190.23849487304688,76.38700103759766 -190.23849487304688,76.38700103759766 C-190.23849487304688,76.38700103759766 -190.23849487304688,-76.38700103759766 -190.23849487304688,-76.38700103759766 C-190.23849487304688,-76.38700103759766 190.23849487304688,-76.38700103759766 190.23849487304688,-76.38700103759766z"></path></g><g opacity="1" transform="matrix(1,0,0,1,0,0)"><path fill="rgb(60,147,72)" fill-opacity="1" d=" M-224.89300537109375,-333.3370056152344 C-224.89300537109375,-333.3370056152344 -224.9739990234375,-287.97900390625 -224.9739990234375,-287.97900390625 C-224.9739990234375,-287.97900390625 -180.8040008544922,-287.2439880371094 -180.8040008544922,-287.2439880371094 C-180.8040008544922,-287.2439880371094 -179.80499267578125,-301.95001220703125 -193.1300048828125,-318.2340087890625 C-205.5679931640625,-333.4339904785156 -224.89300537109375,-333.3370056152344 -224.89300537109375,-333.3370056152344z"></path></g><g opacity="1" transform="matrix(1,0,0,1,0,0)"><path fill="rgb(60,147,72)" fill-opacity="1" d=" M-171.73699951171875,-438.0830078125 C-171.73699951171875,-438.0830078125 -224.50599670410156,-437.60101318359375 -224.50599670410156,-437.60101318359375 C-224.50599670410156,-437.60101318359375 -225.07000732421875,-396.7539978027344 -225.07000732421875,-396.7539978027344 C-225.07000732421875,-396.7539978027344 -201.9949951171875,-391.4580078125 -187.7899932861328,-404.5790100097656 C-174.01600646972656,-417.302001953125 -171.73699951171875,-438.0830078125 -171.73699951171875,-438.0830078125z"></path></g><g opacity="1" transform="matrix(1,0,0,1,0,0)"><path fill="rgb(60,147,72)" fill-opacity="1" d=" M152.05499267578125,-438.08099365234375 C152.05499267578125,-438.08099365234375 95.93599700927734,-437.0509948730469 95.93599700927734,-437.0509948730469 C95.93599700927734,-437.0509948730469 100.7699966430664,-417.1130065917969 114.322998046875,-403.1629943847656 C128.30299377441406,-388.77301025390625 151.781005859375,-388.9410095214844 151.781005859375,-388.9410095214844 C151.781005859375,-388.9410095214844 152.05499267578125,-438.08099365234375 152.05499267578125,-438.08099365234375z"></path></g><g opacity="1" transform="matrix(1,0,0,1,0,0)"><path fill="rgb(60,147,72)" fill-opacity="1" d=" M152.56300354003906,-333.718994140625 C152.56300354003906,-333.718994140625 130.72799682617188,-337.76300048828125 114.96800231933594,-323.3710021972656 C99.36799621582031,-309.125 98.25900268554688,-287.9729919433594 98.25900268554688,-287.9729919433594 C98.25900268554688,-287.9729919433594 152.60000610351562,-287.625 152.60000610351562,-287.625 C152.60000610351562,-287.625 152.56300354003906,-333.718994140625 152.56300354003906,-333.718994140625z"></path></g><g opacity="1" transform="matrix(1,0,0,1,-168.52099609375,-358.1730041503906)"><path fill="rgb(57,148,74)" fill-opacity="1" d=" M0,-18.059499740600586 C10.508452415466309,-18.059499740600586 19.04050064086914,-9.96703815460205 19.04050064086914,0 C19.04050064086914,9.96703815460205 10.508452415466309,18.059499740600586 0,18.059499740600586 C-10.508452415466309,18.059499740600586 -19.04050064086914,9.96703815460205 -19.04050064086914,0 C-19.04050064086914,-9.96703815460205 -10.508452415466309,-18.059499740600586 0,-18.059499740600586z"></path></g><g opacity="1" transform="matrix(1,0,0,1,82.61900329589844,-364.98699951171875)"><path fill="rgb(57,148,74)" fill-opacity="1" d=" M0,-18.059499740600586 C10.508452415466309,-18.059499740600586 19.04050064086914,-9.96703815460205 19.04050064086914,0 C19.04050064086914,9.96703815460205 10.508452415466309,18.059499740600586 0,18.059499740600586 C-10.508452415466309,18.059499740600586 -19.04050064086914,9.96703815460205 -19.04050064086914,0 C-19.04050064086914,-9.96703815460205 -10.508452415466309,-18.059499740600586 0,-18.059499740600586z"></path></g><g opacity="1" transform="matrix(1,0,0,1,-40.7859992980957,-359.4800109863281)"><path fill="rgb(57,148,74)" fill-opacity="1" d=" M0,-56.37950134277344 C34.48878479003906,-56.37950134277344 62.49100112915039,-31.115846633911133 62.49100112915039,0 C62.49100112915039,31.115846633911133 34.48878479003906,56.37950134277344 0,56.37950134277344 C-34.48878479003906,56.37950134277344 -62.49100112915039,31.115846633911133 -62.49100112915039,0 C-62.49100112915039,-31.115846633911133 -34.48878479003906,-56.37950134277344 0,-56.37950134277344z"></path></g><g opacity="1" transform="matrix(1,0,0,1,0,0)"><path stroke-linecap="butt" stroke-linejoin="miter" fill-opacity="0" stroke-miterlimit="4" stroke="rgb(106,182,114)" stroke-opacity="1" stroke-width="14" d=" M-21.878000259399414,-378.0429992675781 C-21.878000259399414,-378.0429992675781 -18.759000778198242,-386.760009765625 -21.08099937438965,-390.01800537109375 C-23.663999557495117,-393.6419982910156 -28.76300048828125,-396.7049865722656 -33.21099853515625,-396.86199951171875 C-39.05400085449219,-397.0679931640625 -46.72700119018555,-395.2309875488281 -50.83000183105469,-391.0660095214844 C-54.992000579833984,-386.8420104980469 -56.14400100708008,-379.2359924316406 -54.26599884033203,-373.61199951171875 C-52.099998474121094,-367.1239929199219 -45.44599914550781,-363.0190124511719 -40.058998107910156,-358.8039855957031 C-34.20800018310547,-354.22601318359375 -29.06800079345703,-348.2170104980469 -29.18899917602539,-341.87200927734375 C-29.30900001525879,-335.5669860839844 -31.447999954223633,-329.8219909667969 -35.987998962402344,-325.44500732421875 C-38.42399978637695,-323.09600830078125 -49.47999954223633,-321.2409973144531 -52.733001708984375,-322.17498779296875 C-56.72700119018555,-323.3210144042969 -60.742000579833984,-327.44000244140625 -62.64400100708008,-331.1340026855469 C-64.50800323486328,-334.75299072265625 -62.74599838256836,-343.7330017089844 -62.74599838256836,-343.7330017089844"></path></g><g opacity="1" transform="matrix(1,0,0,1,0,0)"><path stroke-linecap="butt" stroke-linejoin="miter" fill-opacity="0" stroke-miterlimit="4" stroke="rgb(106,182,114)" stroke-opacity="1" stroke-width="14" d=" M-50.62200164794922,-310.010986328125 C-50.62200164794922,-310.010986328125 -49.18600082397461,-325.9800109863281 -49.18600082397461,-325.9800109863281"></path></g><g opacity="1" transform="matrix(1,0,0,1,0,0)"><path stroke-linecap="butt" stroke-linejoin="miter" fill-opacity="0" stroke-miterlimit="4" stroke="rgb(106,182,114)" stroke-opacity="1" stroke-width="14" d=" M-32.63999938964844,-409.2550048828125 C-32.63999938964844,-409.2550048828125 -33.849998474121094,-392.86700439453125 -33.849998474121094,-392.86700439453125"></path></g></g><g transform="matrix(0.9743700623512268,0.22495105862617493,-0.2395436316728592,1.037577509880066,439.44964599609375,639.2364501953125)" opacity="1" style="display: block;"><g opacity="1" transform="matrix(1,0,0,1,-36.27199935913086,-362.64898681640625)"><path fill="rgb(106,182,114)" fill-opacity="1" d=" M190.23849487304688,-76.38700103759766 C190.23849487304688,-76.38700103759766 190.23849487304688,76.38700103759766 190.23849487304688,76.38700103759766 C190.23849487304688,76.38700103759766 -190.23849487304688,76.38700103759766 -190.23849487304688,76.38700103759766 C-190.23849487304688,76.38700103759766 -190.23849487304688,-76.38700103759766 -190.23849487304688,-76.38700103759766 C-190.23849487304688,-76.38700103759766 190.23849487304688,-76.38700103759766 190.23849487304688,-76.38700103759766z"></path><path stroke-linecap="butt" stroke-linejoin="miter" fill-opacity="0" stroke-miterlimit="4" stroke="rgb(0,0,0)" stroke-opacity="1" stroke-width="3" d=" M190.23849487304688,-76.38700103759766 C190.23849487304688,-76.38700103759766 190.23849487304688,76.38700103759766 190.23849487304688,76.38700103759766 C190.23849487304688,76.38700103759766 -190.23849487304688,76.38700103759766 -190.23849487304688,76.38700103759766 C-190.23849487304688,76.38700103759766 -190.23849487304688,-76.38700103759766 -190.23849487304688,-76.38700103759766 C-190.23849487304688,-76.38700103759766 190.23849487304688,-76.38700103759766 190.23849487304688,-76.38700103759766z"></path></g><g opacity="1" transform="matrix(1,0,0,1,0,0)"><path fill="rgb(60,147,72)" fill-opacity="1" d=" M-224.89300537109375,-333.3370056152344 C-224.89300537109375,-333.3370056152344 -224.9739990234375,-287.97900390625 -224.9739990234375,-287.97900390625 C-224.9739990234375,-287.97900390625 -180.8040008544922,-287.2439880371094 -180.8040008544922,-287.2439880371094 C-180.8040008544922,-287.2439880371094 -179.80499267578125,-301.95001220703125 -193.1300048828125,-318.2340087890625 C-205.5679931640625,-333.4339904785156 -224.89300537109375,-333.3370056152344 -224.89300537109375,-333.3370056152344z"></path></g><g opacity="1" transform="matrix(1,0,0,1,0,0)"><path fill="rgb(60,147,72)" fill-opacity="1" d=" M-171.73699951171875,-438.0830078125 C-171.73699951171875,-438.0830078125 -224.50599670410156,-437.60101318359375 -224.50599670410156,-437.60101318359375 C-224.50599670410156,-437.60101318359375 -225.07000732421875,-396.7539978027344 -225.07000732421875,-396.7539978027344 C-225.07000732421875,-396.7539978027344 -201.9949951171875,-391.4580078125 -187.7899932861328,-404.5790100097656 C-174.01600646972656,-417.302001953125 -171.73699951171875,-438.0830078125 -171.73699951171875,-438.0830078125z"></path></g><g opacity="1" transform="matrix(1,0,0,1,0,0)"><path fill="rgb(60,147,72)" fill-opacity="1" d=" M152.05499267578125,-438.08099365234375 C152.05499267578125,-438.08099365234375 95.93599700927734,-437.0509948730469 95.93599700927734,-437.0509948730469 C95.93599700927734,-437.0509948730469 100.7699966430664,-417.1130065917969 114.322998046875,-403.1629943847656 C128.30299377441406,-388.77301025390625 151.781005859375,-388.9410095214844 151.781005859375,-388.9410095214844 C151.781005859375,-388.9410095214844 152.05499267578125,-438.08099365234375 152.05499267578125,-438.08099365234375z"></path></g><g opacity="1" transform="matrix(1,0,0,1,0,0)"><path fill="rgb(60,147,72)" fill-opacity="1" d=" M152.56300354003906,-333.718994140625 C152.56300354003906,-333.718994140625 130.72799682617188,-337.76300048828125 114.96800231933594,-323.3710021972656 C99.36799621582031,-309.125 98.25900268554688,-287.9729919433594 98.25900268554688,-287.9729919433594 C98.25900268554688,-287.9729919433594 152.60000610351562,-287.625 152.60000610351562,-287.625 C152.60000610351562,-287.625 152.56300354003906,-333.718994140625 152.56300354003906,-333.718994140625z"></path></g><g opacity="1" transform="matrix(1,0,0,1,-168.52099609375,-358.1730041503906)"><path fill="rgb(57,148,74)" fill-opacity="1" d=" M0,-18.059499740600586 C10.508452415466309,-18.059499740600586 19.04050064086914,-9.96703815460205 19.04050064086914,0 C19.04050064086914,9.96703815460205 10.508452415466309,18.059499740600586 0,18.059499740600586 C-10.508452415466309,18.059499740600586 -19.04050064086914,9.96703815460205 -19.04050064086914,0 C-19.04050064086914,-9.96703815460205 -10.508452415466309,-18.059499740600586 0,-18.059499740600586z"></path></g><g opacity="1" transform="matrix(1,0,0,1,82.61900329589844,-364.98699951171875)"><path fill="rgb(57,148,74)" fill-opacity="1" d=" M0,-18.059499740600586 C10.508452415466309,-18.059499740600586 19.04050064086914,-9.96703815460205 19.04050064086914,0 C19.04050064086914,9.96703815460205 10.508452415466309,18.059499740600586 0,18.059499740600586 C-10.508452415466309,18.059499740600586 -19.04050064086914,9.96703815460205 -19.04050064086914,0 C-19.04050064086914,-9.96703815460205 -10.508452415466309,-18.059499740600586 0,-18.059499740600586z"></path></g><g opacity="1" transform="matrix(1,0,0,1,-40.7859992980957,-359.4800109863281)"><path fill="rgb(57,148,74)" fill-opacity="1" d=" M0,-56.37950134277344 C34.48878479003906,-56.37950134277344 62.49100112915039,-31.115846633911133 62.49100112915039,0 C62.49100112915039,31.115846633911133 34.48878479003906,56.37950134277344 0,56.37950134277344 C-34.48878479003906,56.37950134277344 -62.49100112915039,31.115846633911133 -62.49100112915039,0 C-62.49100112915039,-31.115846633911133 -34.48878479003906,-56.37950134277344 0,-56.37950134277344z"></path></g><g opacity="1" transform="matrix(1,0,0,1,0,0)"><path stroke-linecap="butt" stroke-linejoin="miter" fill-opacity="0" stroke-miterlimit="4" stroke="rgb(106,182,114)" stroke-opacity="1" stroke-width="14" d=" M-21.878000259399414,-378.0429992675781 C-21.878000259399414,-378.0429992675781 -18.759000778198242,-386.760009765625 -21.08099937438965,-390.01800537109375 C-23.663999557495117,-393.6419982910156 -28.76300048828125,-396.7049865722656 -33.21099853515625,-396.86199951171875 C-39.05400085449219,-397.0679931640625 -46.72700119018555,-395.2309875488281 -50.83000183105469,-391.0660095214844 C-54.992000579833984,-386.8420104980469 -56.14400100708008,-379.2359924316406 -54.26599884033203,-373.61199951171875 C-52.099998474121094,-367.1239929199219 -45.44599914550781,-363.0190124511719 -40.058998107910156,-358.8039855957031 C-34.20800018310547,-354.22601318359375 -29.06800079345703,-348.2170104980469 -29.18899917602539,-341.87200927734375 C-29.30900001525879,-335.5669860839844 -31.447999954223633,-329.8219909667969 -35.987998962402344,-325.44500732421875 C-38.42399978637695,-323.09600830078125 -49.47999954223633,-321.2409973144531 -52.733001708984375,-322.17498779296875 C-56.72700119018555,-323.3210144042969 -60.742000579833984,-327.44000244140625 -62.64400100708008,-331.1340026855469 C-64.50800323486328,-334.75299072265625 -62.74599838256836,-343.7330017089844 -62.74599838256836,-343.7330017089844"></path></g><g opacity="1" transform="matrix(1,0,0,1,0,0)"><path stroke-linecap="butt" stroke-linejoin="miter" fill-opacity="0" stroke-miterlimit="4" stroke="rgb(106,182,114)" stroke-opacity="1" stroke-width="14" d=" M-50.62200164794922,-310.010986328125 C-50.62200164794922,-310.010986328125 -49.18600082397461,-325.9800109863281 -49.18600082397461,-325.9800109863281"></path></g><g opacity="1" transform="matrix(1,0,0,1,0,0)"><path stroke-linecap="butt" stroke-linejoin="miter" fill-opacity="0" stroke-miterlimit="4" stroke="rgb(106,182,114)" stroke-opacity="1" stroke-width="14" d=" M-32.63999938964844,-409.2550048828125 C-32.63999938964844,-409.2550048828125 -33.849998474121094,-392.86700439453125 -33.849998474121094,-392.86700439453125"></path></g></g><g transform="matrix(0.8910065293312073,0.45399048924446106,-0.4834408760070801,0.94880610704422,363.73223876953125,571.6697998046875)" opacity="1" style="display: block;"><g opacity="1" transform="matrix(1,0,0,1,-36.27199935913086,-362.64898681640625)"><path fill="rgb(106,182,114)" fill-opacity="1" d=" M190.23849487304688,-76.38700103759766 C190.23849487304688,-76.38700103759766 190.23849487304688,76.38700103759766 190.23849487304688,76.38700103759766 C190.23849487304688,76.38700103759766 -190.23849487304688,76.38700103759766 -190.23849487304688,76.38700103759766 C-190.23849487304688,76.38700103759766 -190.23849487304688,-76.38700103759766 -190.23849487304688,-76.38700103759766 C-190.23849487304688,-76.38700103759766 190.23849487304688,-76.38700103759766 190.23849487304688,-76.38700103759766z"></path><path stroke-linecap="butt" stroke-linejoin="miter" fill-opacity="0" stroke-miterlimit="4" stroke="rgb(0,0,0)" stroke-opacity="1" stroke-width="3" d=" M190.23849487304688,-76.38700103759766 C190.23849487304688,-76.38700103759766 190.23849487304688,76.38700103759766 190.23849487304688,76.38700103759766 C190.23849487304688,76.38700103759766 -190.23849487304688,76.38700103759766 -190.23849487304688,76.38700103759766 C-190.23849487304688,76.38700103759766 -190.23849487304688,-76.38700103759766 -190.23849487304688,-76.38700103759766 C-190.23849487304688,-76.38700103759766 190.23849487304688,-76.38700103759766 190.23849487304688,-76.38700103759766z"></path></g><g opacity="1" transform="matrix(1,0,0,1,0,0)"><path fill="rgb(60,147,72)" fill-opacity="1" d=" M-224.89300537109375,-333.3370056152344 C-224.89300537109375,-333.3370056152344 -224.9739990234375,-287.97900390625 -224.9739990234375,-287.97900390625 C-224.9739990234375,-287.97900390625 -180.8040008544922,-287.2439880371094 -180.8040008544922,-287.2439880371094 C-180.8040008544922,-287.2439880371094 -179.80499267578125,-301.95001220703125 -193.1300048828125,-318.2340087890625 C-205.5679931640625,-333.4339904785156 -224.89300537109375,-333.3370056152344 -224.89300537109375,-333.3370056152344z"></path></g><g opacity="1" transform="matrix(1,0,0,1,0,0)"><path fill="rgb(60,147,72)" fill-opacity="1" d=" M-171.73699951171875,-438.0830078125 C-171.73699951171875,-438.0830078125 -224.50599670410156,-437.60101318359375 -224.50599670410156,-437.60101318359375 C-224.50599670410156,-437.60101318359375 -225.07000732421875,-396.7539978027344 -225.07000732421875,-396.7539978027344 C-225.07000732421875,-396.7539978027344 -201.9949951171875,-391.4580078125 -187.7899932861328,-404.5790100097656 C-174.01600646972656,-417.302001953125 -171.73699951171875,-438.0830078125 -171.73699951171875,-438.0830078125z"></path></g><g opacity="1" transform="matrix(1,0,0,1,0,0)"><path fill="rgb(60,147,72)" fill-opacity="1" d=" M152.05499267578125,-438.08099365234375 C152.05499267578125,-438.08099365234375 95.93599700927734,-437.0509948730469 95.93599700927734,-437.0509948730469 C95.93599700927734,-437.0509948730469 100.7699966430664,-417.1130065917969 114.322998046875,-403.1629943847656 C128.30299377441406,-388.77301025390625 151.781005859375,-388.9410095214844 151.781005859375,-388.9410095214844 C151.781005859375,-388.9410095214844 152.05499267578125,-438.08099365234375 152.05499267578125,-438.08099365234375z"></path></g><g opacity="1" transform="matrix(1,0,0,1,0,0)"><path fill="rgb(60,147,72)" fill-opacity="1" d=" M152.56300354003906,-333.718994140625 C152.56300354003906,-333.718994140625 130.72799682617188,-337.76300048828125 114.96800231933594,-323.3710021972656 C99.36799621582031,-309.125 98.25900268554688,-287.9729919433594 98.25900268554688,-287.9729919433594 C98.25900268554688,-287.9729919433594 152.60000610351562,-287.625 152.60000610351562,-287.625 C152.60000610351562,-287.625 152.56300354003906,-333.718994140625 152.56300354003906,-333.718994140625z"></path></g><g opacity="1" transform="matrix(1,0,0,1,-168.52099609375,-358.1730041503906)"><path fill="rgb(57,148,74)" fill-opacity="1" d=" M0,-18.059499740600586 C10.508452415466309,-18.059499740600586 19.04050064086914,-9.96703815460205 19.04050064086914,0 C19.04050064086914,9.96703815460205 10.508452415466309,18.059499740600586 0,18.059499740600586 C-10.508452415466309,18.059499740600586 -19.04050064086914,9.96703815460205 -19.04050064086914,0 C-19.04050064086914,-9.96703815460205 -10.508452415466309,-18.059499740600586 0,-18.059499740600586z"></path></g><g opacity="1" transform="matrix(1,0,0,1,82.61900329589844,-364.98699951171875)"><path fill="rgb(57,148,74)" fill-opacity="1" d=" M0,-18.059499740600586 C10.508452415466309,-18.059499740600586 19.04050064086914,-9.96703815460205 19.04050064086914,0 C19.04050064086914,9.96703815460205 10.508452415466309,18.059499740600586 0,18.059499740600586 C-10.508452415466309,18.059499740600586 -19.04050064086914,9.96703815460205 -19.04050064086914,0 C-19.04050064086914,-9.96703815460205 -10.508452415466309,-18.059499740600586 0,-18.059499740600586z"></path></g><g opacity="1" transform="matrix(1,0,0,1,-40.7859992980957,-359.4800109863281)"><path fill="rgb(57,148,74)" fill-opacity="1" d=" M0,-56.37950134277344 C34.48878479003906,-56.37950134277344 62.49100112915039,-31.115846633911133 62.49100112915039,0 C62.49100112915039,31.115846633911133 34.48878479003906,56.37950134277344 0,56.37950134277344 C-34.48878479003906,56.37950134277344 -62.49100112915039,31.115846633911133 -62.49100112915039,0 C-62.49100112915039,-31.115846633911133 -34.48878479003906,-56.37950134277344 0,-56.37950134277344z"></path></g><g opacity="1" transform="matrix(1,0,0,1,0,0)"><path stroke-linecap="butt" stroke-linejoin="miter" fill-opacity="0" stroke-miterlimit="4" stroke="rgb(106,182,114)" stroke-opacity="1" stroke-width="14" d=" M-21.878000259399414,-378.0429992675781 C-21.878000259399414,-378.0429992675781 -18.759000778198242,-386.760009765625 -21.08099937438965,-390.01800537109375 C-23.663999557495117,-393.6419982910156 -28.76300048828125,-396.7049865722656 -33.21099853515625,-396.86199951171875 C-39.05400085449219,-397.0679931640625 -46.72700119018555,-395.2309875488281 -50.83000183105469,-391.0660095214844 C-54.992000579833984,-386.8420104980469 -56.14400100708008,-379.2359924316406 -54.26599884033203,-373.61199951171875 C-52.099998474121094,-367.1239929199219 -45.44599914550781,-363.0190124511719 -40.058998107910156,-358.8039855957031 C-34.20800018310547,-354.22601318359375 -29.06800079345703,-348.2170104980469 -29.18899917602539,-341.87200927734375 C-29.30900001525879,-335.5669860839844 -31.447999954223633,-329.8219909667969 -35.987998962402344,-325.44500732421875 C-38.42399978637695,-323.09600830078125 -49.47999954223633,-321.2409973144531 -52.733001708984375,-322.17498779296875 C-56.72700119018555,-323.3210144042969 -60.742000579833984,-327.44000244140625 -62.64400100708008,-331.1340026855469 C-64.50800323486328,-334.75299072265625 -62.74599838256836,-343.7330017089844 -62.74599838256836,-343.7330017089844"></path></g><g opacity="1" transform="matrix(1,0,0,1,0,0)"><path stroke-linecap="butt" stroke-linejoin="miter" fill-opacity="0" stroke-miterlimit="4" stroke="rgb(106,182,114)" stroke-opacity="1" stroke-width="14" d=" M-50.62200164794922,-310.010986328125 C-50.62200164794922,-310.010986328125 -49.18600082397461,-325.9800109863281 -49.18600082397461,-325.9800109863281"></path></g><g opacity="1" transform="matrix(1,0,0,1,0,0)"><path stroke-linecap="butt" stroke-linejoin="miter" fill-opacity="0" stroke-miterlimit="4" stroke="rgb(106,182,114)" stroke-opacity="1" stroke-width="14" d=" M-32.63999938964844,-409.2550048828125 C-32.63999938964844,-409.2550048828125 -33.849998474121094,-392.86700439453125 -33.849998474121094,-392.86700439453125"></path></g></g><g transform="matrix(1,0,0,1,540,579.047607421875)" opacity="1" style="display: block;"><g opacity="1" transform="matrix(1,0,0,1,0,0)"><path fill="rgb(254,204,180)" fill-opacity="1" d=" M181,-332 C181,-332 178.947998046875,-319.906005859375 174.5,-316.5 C167.34300231933594,-311.0199890136719 157.9980010986328,-308.0329895019531 149,-307.5 C134.92599487304688,-306.6659851074219 120.98200225830078,-310.6889953613281 107,-312.5 C97.81400299072266,-313.69000244140625 88.6709976196289,-315.20001220703125 79.5,-316.5 C66.33799743652344,-318.3659973144531 53.189998626708984,-320.3389892578125 40,-322 C30.687000274658203,-323.1730041503906 12,-325 12,-325 C12,-325 -18.5,-331 -23,-312 C-28.575000762939453,-288.4590148925781 -14.210000038146973,-283.3190002441406 -2.5,-276 C5.5,-271 17.458999633789062,-267.135009765625 28,-264.5 C38.268001556396484,-261.9330139160156 48.96200180053711,-261.4849853515625 59.5,-260.5 C66.80899810791016,-259.8169860839844 76.85299682617188,-259.67401123046875 84,-258 C95.54900360107422,-255.2949981689453 115,-247.5 115,-247.5 C115,-247.5 138,-236.5 149.5,-231 C157.16700744628906,-227.33299255371094 164.47300720214844,-222.79200744628906 172.5,-220 C179.91000366210938,-217.42300415039062 187.68299865722656,-215.6699981689453 195.5,-215 C211.11300659179688,-213.66200256347656 226.8520050048828,-213.1719970703125 242.5,-214 C258.43701171875,-214.84300231933594 274.1050109863281,-218.5749969482422 290,-220 C309.4570007324219,-221.74400329589844 348.5,-223.5 348.5,-223.5 C348.5,-223.5 343.1719970703125,-252.71299743652344 342.5,-267.5 C341.8330078125,-282.1669921875 344.5,-311.5 344.5,-311.5 C344.5,-311.5 311.40899658203125,-306.53399658203125 296.25,-308.75 C281.6440124511719,-310.885009765625 253,-328 253,-328"></path><path stroke-linecap="butt" stroke-linejoin="miter" fill-opacity="0" stroke-miterlimit="4" stroke="rgb(0,0,0)" stroke-opacity="1" stroke-width="3" d=" M181,-332 C181,-332 178.947998046875,-319.906005859375 174.5,-316.5 C167.34300231933594,-311.0199890136719 157.9980010986328,-308.0329895019531 149,-307.5 C134.92599487304688,-306.6659851074219 120.98200225830078,-310.6889953613281 107,-312.5 C97.81400299072266,-313.69000244140625 88.6709976196289,-315.20001220703125 79.5,-316.5 C66.33799743652344,-318.3659973144531 53.189998626708984,-320.3389892578125 40,-322 C30.687000274658203,-323.1730041503906 12,-325 12,-325 C12,-325 -18.5,-331 -23,-312 C-28.575000762939453,-288.4590148925781 -14.210000038146973,-283.3190002441406 -2.5,-276 C5.5,-271 17.458999633789062,-267.135009765625 28,-264.5 C38.268001556396484,-261.9330139160156 48.96200180053711,-261.4849853515625 59.5,-260.5 C66.80899810791016,-259.8169860839844 76.85299682617188,-259.67401123046875 84,-258 C95.54900360107422,-255.2949981689453 115,-247.5 115,-247.5 C115,-247.5 138,-236.5 149.5,-231 C157.16700744628906,-227.33299255371094 164.47300720214844,-222.79200744628906 172.5,-220 C179.91000366210938,-217.42300415039062 187.68299865722656,-215.6699981689453 195.5,-215 C211.11300659179688,-213.66200256347656 226.8520050048828,-213.1719970703125 242.5,-214 C258.43701171875,-214.84300231933594 274.1050109863281,-218.5749969482422 290,-220 C309.4570007324219,-221.74400329589844 348.5,-223.5 348.5,-223.5 C348.5,-223.5 343.1719970703125,-252.71299743652344 342.5,-267.5 C341.8330078125,-282.1669921875 344.5,-311.5 344.5,-311.5 C344.5,-311.5 311.40899658203125,-306.53399658203125 296.25,-308.75 C281.6440124511719,-310.885009765625 253,-328 253,-328"></path></g><g opacity="1" transform="matrix(1,0,0,1,0,0)"><path fill="rgb(254,204,180)" fill-opacity="1" d=" M115,-295 C115,-295 114.53500366210938,-286.5429992675781 112.5,-283 C109.85800170898438,-278.3999938964844 103.5,-269.5 103.5,-269.5"></path><path stroke-linecap="butt" stroke-linejoin="miter" fill-opacity="0" stroke-miterlimit="4" stroke="rgb(0,0,0)" stroke-opacity="1" stroke-width="3" d=" M115,-295 C115,-295 114.53500366210938,-286.5429992675781 112.5,-283 C109.85800170898438,-278.3999938964844 103.5,-269.5 103.5,-269.5"></path></g><g opacity="1" transform="matrix(1,0,0,1,0,0)"><path fill="rgb(254,204,180)" fill-opacity="1" d=" M51,-304.5 C51,-304.5 52.000999450683594,-294.59698486328125 50.5,-290 C49.207000732421875,-286.03900146484375 43,-280 43,-280"></path><path stroke-linecap="butt" stroke-linejoin="miter" fill-opacity="0" stroke-miterlimit="4" stroke="rgb(0,0,0)" stroke-opacity="1" stroke-width="3" d=" M51,-304.5 C51,-304.5 52.000999450683594,-294.59698486328125 50.5,-290 C49.207000732421875,-286.03900146484375 43,-280 43,-280"></path></g><g opacity="1" transform="matrix(1,0,0,1,0,0)"><path fill="rgb(254,204,180)" fill-opacity="1" d=" M-9,-318 C-9,-318 -14.220999717712402,-311.31201171875 -16,-307.5 C-17.761999130249023,-303.7239990234375 -19.5,-295.5 -19.5,-295.5 C-19.5,-295.5 -4.493000030517578,-286.9339904785156 3.5,-288 C7.947999954223633,-288.5929870605469 9.333000183105469,-295.1669921875 10.5,-299.5 C11.756999969482422,-304.1669921875 14.005999565124512,-310.6730041503906 10.5,-314 C5.685999870300293,-318.5669860839844 -9,-318 -9,-318z"></path><path stroke-linecap="butt" stroke-linejoin="miter" fill-opacity="0" stroke-miterlimit="4" stroke="rgb(0,0,0)" stroke-opacity="1" stroke-width="3" d=" M-9,-318 C-9,-318 -14.220999717712402,-311.31201171875 -16,-307.5 C-17.761999130249023,-303.7239990234375 -19.5,-295.5 -19.5,-295.5 C-19.5,-295.5 -4.493000030517578,-286.9339904785156 3.5,-288 C7.947999954223633,-288.5929870605469 9.333000183105469,-295.1669921875 10.5,-299.5 C11.756999969482422,-304.1669921875 14.005999565124512,-310.6730041503906 10.5,-314 C5.685999870300293,-318.5669860839844 -9,-318 -9,-318z"></path></g><g opacity="1" transform="matrix(1,0,0,1,0,0)"><path fill="rgb(254,204,180)" fill-opacity="1" d=" M331,-299 C331,-299 328.72900390625,-279.98199462890625 329.5,-270.5 C330.40899658203125,-259.32598876953125 334.5,-237.5 334.5,-237.5"></path><path stroke-linecap="butt" stroke-linejoin="miter" fill-opacity="0" stroke-miterlimit="4" stroke="rgb(0,0,0)" stroke-opacity="1" stroke-width="3" d=" M331,-299 C331,-299 328.72900390625,-279.98199462890625 329.5,-270.5 C330.40899658203125,-259.32598876953125 334.5,-237.5 334.5,-237.5"></path></g></g><g clip-path="url(#__lottie_element_160)" transform="matrix(1.280252456665039,0.45136740803718567,-0.45375147461891174,1.2870146036148071,-846.8279418945312,-59.5672607421875)" opacity="1" style="display: block;"><g transform="matrix(1,0,0,1,540,540)" opacity="1" style="display: block;"><g opacity="1" transform="matrix(1,0,0,1,0,0)"><path fill="rgb(28,162,164)" fill-opacity="1" d=" M375,-440 C375,-440 358.1510009765625,-434.1300048828125 351,-429 C342.572998046875,-422.9549865722656 329,-407 329,-407 C329,-407 332,-388.3869934082031 332,-379 C332,-370.93798828125 329,-355 329,-355 C329,-355 306,-383 306,-383 C306,-383 266,-321 269,-262 C272.3039855957031,-197.01499938964844 316,-125 316,-125 C316,-125 336.33599853515625,-137.11599731445312 344.5,-145.5 C355.0570068359375,-156.34300231933594 364.3900146484375,-168.63999938964844 371.5,-182 C379.7019958496094,-197.41200256347656 390,-231 390,-231 C390,-231 380.8710021972656,-229.08299255371094 376.5,-227.5 C371.1700134277344,-225.57000732421875 361,-220.5 361,-220.5 C361,-220.5 370.6889953613281,-234.7050018310547 376.5,-241 C382.7430114746094,-247.76300048828125 397,-259.5 397,-259.5 C397,-259.5 400.5,-297 400.5,-297 C400.5,-297 393.22601318359375,-295.0849914550781 389.5,-295 C385.79998779296875,-294.9159851074219 378.5,-296.5 378.5,-296.5 C378.5,-296.5 386.38800048828125,-301.19000244140625 390,-304 C393.9119873046875,-307.0419921875 401.5,-312.5 401.5,-312.5 C401.5,-312.5 402.3160095214844,-357.0840148925781 398,-378 C393.5450134277344,-399.5880126953125 375,-440 375,-440z"></path></g><g opacity="1" transform="matrix(1,0,0,1,0,0)"><path stroke-linecap="butt" stroke-linejoin="miter" fill-opacity="0" stroke-miterlimit="4" stroke="rgb(21,124,145)" stroke-opacity="1" stroke-width="2" d=" M352,-366 C352,-366 336.9649963378906,-282.15899658203125 331,-240 C322.2950134277344,-178.4709930419922 312.45599365234375,-116.98100280761719 308,-55 C301.4460144042969,36.159000396728516 298,219 298,219"></path></g><g opacity="1" transform="matrix(1,0,0,1,0,0)"><path stroke-linecap="butt" stroke-linejoin="miter" fill-opacity="0" stroke-miterlimit="4" stroke="rgb(21,124,145)" stroke-opacity="1" stroke-width="2" d=" M352,-343.5 C352,-343.5 367.6780090332031,-355.0830078125 375,-361.5 C382.53399658203125,-368.1029968261719 396.5,-382.5 396.5,-382.5"></path></g><g opacity="1" transform="matrix(1,0,0,1,0,0)"><path stroke-linecap="butt" stroke-linejoin="miter" fill-opacity="0" stroke-miterlimit="4" stroke="rgb(21,124,145)" stroke-opacity="1" stroke-width="2" d=" M356,-325.5 C356,-325.5 373.4280090332031,-333.77099609375 381.5,-339 C388.1629943847656,-343.3160095214844 400,-354 400,-354"></path></g><g opacity="1" transform="matrix(1,0,0,1,0,0)"><path stroke-linecap="butt" stroke-linejoin="miter" fill-opacity="0" stroke-miterlimit="4" stroke="rgb(21,124,145)" stroke-opacity="1" stroke-width="2" d=" M352.5,-202 C352.5,-202 325,-184 325,-184"></path></g><g opacity="1" transform="matrix(1,0,0,1,0,0)"><path stroke-linecap="butt" stroke-linejoin="miter" fill-opacity="0" stroke-miterlimit="4" stroke="rgb(21,124,145)" stroke-opacity="1" stroke-width="2" d=" M368.5,-200 C368.5,-200 355.8659973144531,-187.5050048828125 348.5,-182 C339.8380126953125,-175.5260009765625 321,-164.5 321,-164.5"></path></g><g opacity="1" transform="matrix(1,0,0,1,0,0)"><path fill="rgb(21,124,145)" fill-opacity="1" d=" M287.25,-345.5 C287.25,-345.5 276.03900146484375,-328.6990051269531 267.5,-267.5 C264.5,-246 290,-179.5 290,-179.5 C290,-179.5 315.25,-233 315,-262 C314.4849853515625,-321.7510070800781 287.25,-345.5 287.25,-345.5z"></path></g></g><g transform="matrix(1,0,0,1,540,540)" opacity="1" style="display: block;"><g opacity="1" transform="matrix(1,0,0,1,0,0)"><path fill="rgb(28,162,164)" fill-opacity="1" d=" M74.5,-286.5 C65.0250015258789,-288.47698974609375 55.00299835205078,-286.8429870605469 45.5,-285 C27.361000061035156,-281.48199462890625 -8,-270.5 -8,-270.5 C-8,-270.5 -6.5,-250 -6.5,-250 C-6.5,-250 -20.5,-267.5 -20.5,-267.5 C-20.5,-267.5 -51,-257.5 -51,-257.5 C-51,-257.5 -42.5,-235.5 -42.5,-235.5 C-42.5,-235.5 -74,-251.5 -74,-251.5 C-74,-251.5 -119,-244 -134,-222 C-139.427001953125,-214.0399932861328 -118.09300231933594,-205.8800048828125 -108.5,-205 C-78.76200103759766,-202.2729949951172 -48.750999450683594,-206.41299438476562 -19,-209 C35.62300109863281,-213.75 144.5,-227 144.5,-227 C144.5,-227 133.9759979248047,-243.32200622558594 127.5,-250.5 C120.072998046875,-258.7330017089844 112.1719970703125,-266.7699890136719 103,-273 C94.30400085449219,-278.906005859375 84.79000091552734,-284.35198974609375 74.5,-286.5z"></path></g><g opacity="1" transform="matrix(1,0,0,1,0,0)"><path fill="rgb(21,124,145)" fill-opacity="1" d=" M182,-228.5 C182,-228.5 156.6219940185547,-227.75799560546875 144,-226.5 C99.77100372314453,-222.08999633789062 55.70500183105469,-216.1479949951172 11.5,-211.5 C-15.631999969482422,-208.64700317382812 -42.7599983215332,-205.50100708007812 -70,-204 C-82.15299987792969,-203.33099365234375 -106.5,-205 -106.5,-205 C-106.5,-205 -82.28299713134766,-199.34800720214844 -70,-197.5 C-47.922000885009766,-194.17799377441406 -25.72100067138672,-191.6699981689453 -3.5,-189.5 C16.95800018310547,-187.5019989013672 37.599998474121094,-187.51400756835938 58,-185 C84.97699737548828,-181.6750030517578 112.052001953125,-178.2689971923828 138.5,-172 C157.22000122070312,-167.56300354003906 175.4080047607422,-160.78799438476562 193,-153 C207.53599548339844,-146.56500244140625 234.5,-129.5 234.5,-129.5 C234.5,-129.5 241.03199768066406,-149.3159942626953 240.5,-159.5 C239.83599853515625,-172.21600341796875 235.1199951171875,-192.9429931640625 228,-203.5 C219.85000610351562,-215.5850067138672 197,-224 197,-224 C197,-224 194.77200317382812,-212.8509979248047 192,-208 C188.6540069580078,-202.14500427246094 179,-192.5 179,-192.5 C179,-192.5 181.06500244140625,-202.78500366210938 181.5,-208 C182.0679931640625,-214.81199645996094 182,-228.5 182,-228.5z"></path></g><g opacity="1" transform="matrix(1,0,0,1,0,0)"><path stroke-linecap="butt" stroke-linejoin="miter" fill-opacity="0" stroke-miterlimit="4" stroke="rgb(21,124,145)" stroke-opacity="1" stroke-width="2" d=" M291,218 C291,218 277.6300048828125,27.076000213623047 267,-68 C265.5950012207031,-80.57099914550781 261.1960144042969,-92.9219970703125 255,-104 C249.70199584960938,-113.47200012207031 234.5,-129.5 234.5,-129.5"></path></g><g opacity="1" transform="matrix(1,0,0,1,0,0)"><path stroke-linecap="butt" stroke-linejoin="miter" fill-opacity="0" stroke-miterlimit="4" stroke="rgb(21,124,145)" stroke-opacity="1" stroke-width="2" d=" M-66.5,-216 C-66.5,-216 -82.74299621582031,-222.49099731445312 -90.5,-226.5 C-97.61000061035156,-230.1750030517578 -111,-239 -111,-239"></path></g><g opacity="1" transform="matrix(1,0,0,1,0,0)"><path stroke-linecap="butt" stroke-linejoin="miter" fill-opacity="0" stroke-miterlimit="4" stroke="rgb(21,124,145)" stroke-opacity="1" stroke-width="2" d=" M8.5,-223 C8.5,-223 -6.25,-234.57400512695312 -12.5,-241.5 C-18.666000366210938,-248.33200073242188 -28.5,-264 -28.5,-264"></path></g><g opacity="1" transform="matrix(1,0,0,1,0,0)"><path stroke-linecap="butt" stroke-linejoin="miter" fill-opacity="0" stroke-miterlimit="4" stroke="rgb(21,124,145)" stroke-opacity="1" stroke-width="2" d=" M55,-234.5 C55,-234.5 38.564998626708984,-249.06100463867188 31,-257 C25.038000106811523,-263.2569885253906 14.5,-277 14.5,-277"></path></g></g><g transform="matrix(1,0,0,1,540,540)" opacity="1" style="display: block;"><g opacity="1" transform="matrix(1,0,0,1,0,0)"><path fill="rgb(28,162,164)" fill-opacity="1" d=" M105,-430 C105,-430 137.08099365234375,-398.7300109863281 149,-380 C186.2689971923828,-321.43499755859375 252,-199 252,-199 C252,-199 276.33599853515625,-220.89199829101562 284,-235 C291.4100036621094,-248.64100646972656 295.4590148925781,-264.4849853515625 296,-280 C296.4880065917969,-293.9840087890625 291.6570129394531,-307.8059997558594 287,-321 C283.572998046875,-330.7090148925781 272,-348 272,-348 C272,-348 266.375,-338.40301513671875 263,-334 C258.68798828125,-328.3760070800781 249,-318 249,-318 C249,-318 254.9290008544922,-331.125 257,-338 C259.11199951171875,-345.010986328125 261.5,-359.5 261.5,-359.5 C261.5,-359.5 240.5,-383 240.5,-383 C240.5,-383 234.41000366210938,-371.2850036621094 230.5,-366 C225.3719940185547,-359.0669860839844 213.5,-346.5 213.5,-346.5 C213.5,-346.5 217.74600219726562,-359.70098876953125 219,-366.5 C220.9199981689453,-376.90899658203125 223,-398 223,-398 C223,-398 200.01600646972656,-414.4070129394531 187,-419.5 C172.8419952392578,-425.0400085449219 157.5800018310547,-427.5690002441406 142.5,-429.5 C130.10000610351562,-431.0880126953125 105,-430 105,-430z"></path></g><g opacity="1" transform="matrix(1,0,0,1,0,0)"><path stroke-linecap="butt" stroke-linejoin="miter" fill-opacity="0" stroke-miterlimit="4" stroke="rgb(21,123,139)" stroke-opacity="1" stroke-width="2" d=" M293,225 C293,225 290.6919860839844,2.569000005722046 280,-108 C276.94500732421875,-139.58900451660156 251.5,-201 251.5,-201"></path></g><g opacity="1" transform="matrix(1,0,0,1,0,0)"><path stroke-linecap="butt" stroke-linejoin="miter" fill-opacity="0" stroke-miterlimit="4" stroke="rgb(20,121,144)" stroke-opacity="1" stroke-width="2" d=" M245.5,-258 C245.5,-258 263.656005859375,-279.0570068359375 271.5,-290.5 C277.8699951171875,-299.7929992675781 288,-320 288,-320"></path></g><g opacity="1" transform="matrix(1,0,0,1,0,0)"><path stroke-linecap="butt" stroke-linejoin="miter" fill-opacity="0" stroke-miterlimit="4" stroke="rgb(20,121,144)" stroke-opacity="1" stroke-width="2" d=" M264,-257 C264,-257 275.5849914550781,-269.45001220703125 281,-276 C285.927001953125,-281.9599914550781 295,-294.5 295,-294.5"></path></g><g opacity="1" transform="matrix(1,0,0,1,0,0)"><path stroke-linecap="butt" stroke-linejoin="miter" fill-opacity="0" stroke-miterlimit="4" stroke="rgb(20,121,144)" stroke-opacity="1" stroke-width="2" d=" M191,-366.5 C191,-366.5 192.656005859375,-383.1470031738281 193,-391.5 C193.322998046875,-399.3269958496094 193,-415 193,-415"></path></g><g opacity="1" transform="matrix(1,0,0,1,0,0)"><path stroke-linecap="butt" stroke-linejoin="miter" fill-opacity="0" stroke-miterlimit="4" stroke="rgb(20,121,144)" stroke-opacity="1" stroke-width="2" d=" M176,-363.5 C176,-363.5 177.58200073242188,-385.447998046875 177.5,-395 C177.41400146484375,-405.0669860839844 175.5,-422 175.5,-422"></path></g></g><g transform="matrix(1,0,0,1,540,540)" opacity="1" style="display: block;"><g opacity="1" transform="matrix(1,0,0,1,0,0)"><path fill="rgb(28,162,164)" fill-opacity="1" d=" M466.5,-145.5 C453.1319885253906,-143.906005859375 440.0740051269531,-139.80999755859375 427.5,-135 C415.1080017089844,-130.25999450683594 392,-117 392,-117 C392,-117 388.5,-73 388.5,-73 C388.5,-73 378.5,-105 378.5,-105 C378.5,-105 364.4639892578125,-95.46399688720703 358.5,-89.5 C352.5360107421875,-83.53600311279297 343,-69.5 343,-69.5 C343,-69.5 351.5,-20.5 351.5,-20.5 C351.5,-20.5 330.5,-48 330.5,-48 C330.5,-48 319.1409912109375,-23.28499984741211 318,-10 C316.7489929199219,4.561999797821045 318.93499755859375,19.615999221801758 323.5,33.5 C327.125,44.5260009765625 342,63 342,63 C342,63 342.9519958496094,37.367000579833984 346,25 C348.843994140625,13.460000038146973 352.7539978027344,1.784999966621399 359.5,-8 C368.1969909667969,-20.614999771118164 379.4639892578125,-31.517000198364258 391.5,-41 C401.697998046875,-49.03499984741211 413.7900085449219,-54.393001556396484 425.5,-60 C437.50299072265625,-65.74800109863281 449.9110107421875,-70.68399810791016 462.5,-75 C473.2850036621094,-78.697998046875 485.1260070800781,-79.26799774169922 495.5,-84 C504.4200134277344,-88.06900024414062 514.218017578125,-92.74099731445312 519.5,-101 C524.2109985351562,-108.36699676513672 526.1329956054688,-118.83599853515625 523,-127 C519.864990234375,-135.16900634765625 511.31500244140625,-141.27699279785156 503,-144 C491.4280090332031,-147.78900146484375 478.59100341796875,-146.9409942626953 466.5,-145.5z"></path></g><g opacity="1" transform="matrix(1,0,0,1,0,0)"><path fill="rgb(21,122,145)" fill-opacity="1" d=" M341,61 C341,61 335.07598876953125,92.73400115966797 331,107 C326.7430114746094,121.89800262451172 307.0849914550781,176.91900634765625 301.0870056152344,196.88600158691406 C298.5,205.5 296.5,209 294.864990234375,214.53799438476562 C296.25,215 297,215 297,215 C297,215 321.6659851074219,143.31300354003906 332.5,107 C336.84698486328125,92.43099975585938 342.5,62.5 342.5,62.5 C342.5,62.5 361.6610107421875,31.981000900268555 373.5,18.5 C390.6090087890625,-0.9819999933242798 408.9079895019531,-19.611000061035156 429,-36 C451.5690002441406,-54.409000396728516 500.75,-86.5 500.75,-86.5 C500.75,-86.5 474.7900085449219,-79.2040023803711 462,-75 C449.81500244140625,-70.99500274658203 437.7300109863281,-66.51699829101562 426.1919860839844,-60.91299819946289 C414.3280029296875,-55.1510009765625 401.9649963378906,-49.9379997253418 391.625,-41.75 C379.70599365234375,-32.3120002746582 368.1679992675781,-21.989999771118164 359.5,-9.5 C352.38800048828125,0.7480000257492065 347.5870056152344,17.416000366210938 345.125,25.5"></path></g><g opacity="1" transform="matrix(1,0,0,1,0,0)"><path stroke-linecap="round" stroke-linejoin="miter" fill-opacity="0" stroke-miterlimit="4" stroke="rgb(21,122,145)" stroke-opacity="1" stroke-width="2" d=" M410.25,-60.25 C410.25,-60.25 408.1109924316406,-82.75700378417969 408.75,-94 C409.3680114746094,-104.8740005493164 414,-126.25 414,-126.25"></path></g><g opacity="1" transform="matrix(1,0,0,1,0,0)"><path stroke-linecap="round" stroke-linejoin="miter" fill-opacity="0" stroke-miterlimit="4" stroke="rgb(21,122,145)" stroke-opacity="1" stroke-width="2" d=" M449.25,-108.75 C449.25,-108.75 450.9939880371094,-121.33799743652344 452.5,-127.5 C453.7510070800781,-132.6199951171875 457.5,-142.5 457.5,-142.5"></path></g><g opacity="1" transform="matrix(1,0,0,1,0,0)"><path stroke-linecap="round" stroke-linejoin="miter" fill-opacity="0" stroke-miterlimit="4" stroke="rgb(21,122,145)" stroke-opacity="1" stroke-width="2" d=" M463,-84.75 C463,-84.75 464.4280090332031,-102.1969985961914 466.75,-109.25 C471.1400146484375,-122.58499908447266 483,-145.5 483,-145.5"></path></g></g></g></g></svg>
