<?xml version="1.0" encoding="utf-8"?>
<!-- Generator: Adobe Illustrator 25.1.0, SVG Export Plug-In . SVG Version: 6.00 Build 0)  -->
<svg version="1.1" xmlns="http://www.w3.org/2000/svg" xmlns:xlink="http://www.w3.org/1999/xlink" x="0px" y="0px"
	 viewBox="0 0 500 500" style="enable-background:new 0 0 500 500;" xml:space="preserve">
<style type="text/css">
	.st0{display:none;}
	.st1{fill:#B8C4FF;}
	.st2{fill:#979CF7;}
	.st3{fill:#5C55B5;}
	.st4{fill:#5C62B7;}
	.st5{fill:#FFD731;}
	.st6{fill:#ED6E18;}
	.st7{fill:#FF9517;}
	.st8{fill:#FFFFFF;}
	.st9{fill:#33434F;}
	.st10{fill:#EDE4E6;}
	.st11{fill:#F4CFA2;}
	.st12{fill:#EFAC8E;}
	.st13{fill:#CA4456;}
	.st14{fill:#384F5E;}
	.st15{fill:#42221B;}
	.st16{fill:#CE6F5F;}
	.st17{fill:#A03242;}
	.st18{fill:#CC505C;}
	.st19{fill:#7F8C8D;}
	.st20{fill:#7F2437;}
	.st21{fill:#E5617E;}
	.st22{fill:#37425B;}
	.st23{fill:#4E617F;}
	.st24{fill:#3F506D;}
	.st25{fill:#242F3F;}
	.st26{fill:#2F3A4C;}
	.st27{fill:#A97C50;}
	.st28{fill:#4B4AA3;}
	.st29{fill:#3D4B66;}
	.st30{fill:#3D62AE;}
	.st31{font-family:'MyriadPro-Regular';}
	.st32{font-size:40px;}
</style>
<g id="Background" class="st0">
</g>
<g id="Objects">
	<g>
		<g>
			<path class="st1" d="M412.3,270.8c36-24.3,52-66.1,35.9-102.8c-19.3-44-77.5-63.9-130-44.3c-5.3,2-10.3,4.2-15,6.8
				c-0.1-1.2-0.3-2.3-0.5-3.5c-8.4-49.4-60.7-82.8-116.7-74.7c-49.7,7.2-85.7,44.6-87.4,87.3c-42,12.8-69,52-61.9,93.5
				c2.9,17.2,11.3,32.4,23.3,44.3c-35.3,39.8-46.3,91.7-23.6,135.8c33.3,64.6,136.5,81.8,218,46.1c3.9-1.7,7.7-3.5,11.4-5.4
				c83.9,32.6,172.6,15.6,201.8-40.2C490.4,370.2,463.6,313,412.3,270.8"/>
			<path class="st2" d="M406.4,426.6c22.4-39.1-3.9-90.2-54.2-128.1c35.4-21.8,51-59.2,35.2-92.1c-18.9-39.5-76-57.2-127.5-39.7
				c-5.2,1.8-10.1,3.8-14.7,6.1c-0.1-1-0.3-2.1-0.5-3.1c-8.2-44.2-59.5-74.2-114.5-66.9c-8.5,1.1-16.5,3.1-24,5.7
				c-4.5,9.8-7.2,20.3-7.6,31.1c-42,12.8-69,52-61.9,93.5c2.9,17.2,11.3,32.4,23.3,44.3c-35.3,39.8-46.3,91.7-23.6,135.8
				c21.6,42,72.9,64,128.5,64.4c11.1-2.6,21.9-6,32.5-10.2c3.8-1.5,7.5-3.1,11.1-4.8c6.6,2.3,13.2,4.4,19.8,6.2
				c8.9-2.6,17.6-5.7,26.1-9.4c3.9-1.7,7.7-3.5,11.4-5.4c26.5,10.3,53.4,15.6,78.8,16.4C372.3,462.3,394.4,447.5,406.4,426.6z"/>
		</g>
		<g>
			<path class="st3" d="M437.3,170.4h-1.9c-0.3,0-0.5-0.2-0.6-0.5c-0.2-0.8-0.4-1.6-0.6-2.3c-0.1-0.3,0-0.5,0.3-0.7l1.7-0.9
				c0.3-0.2,0.4-0.5,0.2-0.8l-2.9-4.8c-0.2-0.3-0.5-0.4-0.8-0.2l-1.6,0.9c-0.2,0.1-0.5,0.1-0.7-0.1c-0.5-0.5-1-1.1-1.6-1.5
				c-0.2-0.2-0.3-0.5-0.1-0.7l1-1.6c0.2-0.3,0.1-0.6-0.2-0.8l-4.9-2.8c-0.3-0.2-0.6-0.1-0.8,0.2l-1,1.6c-0.1,0.2-0.4,0.3-0.7,0.2
				c-0.8-0.3-1.7-0.5-2.6-0.7c-0.3-0.1-0.5-0.3-0.5-0.6v-1.8c0-0.3-0.3-0.6-0.6-0.6h-5.7c-0.3,0-0.6,0.3-0.6,0.6v1.8
				c0,0.3-0.2,0.5-0.5,0.6c-0.7,0.1-1.4,0.3-2.1,0.5c-0.3,0.1-0.6,0-0.7-0.3l-0.9-1.6c-0.2-0.3-0.5-0.4-0.8-0.2l-5,2.7
				c-0.3,0.2-0.4,0.5-0.2,0.8l0.9,1.6c0.1,0.2,0.1,0.5-0.1,0.7c-0.6,0.5-1.3,1.1-1.8,1.7c-0.2,0.2-0.5,0.3-0.7,0.1l-1.6-0.9
				c-0.3-0.2-0.6-0.1-0.8,0.2l-2.9,4.8c-0.2,0.3-0.1,0.6,0.2,0.8l1.6,0.9c0.2,0.1,0.3,0.4,0.3,0.7c-0.3,0.8-0.5,1.7-0.7,2.5
				c-0.1,0.3-0.3,0.5-0.6,0.5h-1.9c-0.3,0-0.6,0.3-0.6,0.6v5.6c0,0.3,0.3,0.6,0.6,0.6h1.9c0.3,0,0.5,0.2,0.6,0.5
				c0.2,0.8,0.4,1.6,0.6,2.3c0.1,0.3,0,0.5-0.3,0.7l-1.7,0.9c-0.3,0.2-0.4,0.5-0.2,0.8l2.9,4.8c0.2,0.3,0.5,0.4,0.8,0.2l1.6-0.9
				c0.2-0.1,0.5-0.1,0.7,0.1c0.5,0.5,1,1.1,1.6,1.5c0.2,0.2,0.3,0.5,0.1,0.7l-1,1.6c-0.2,0.3-0.1,0.6,0.2,0.8l4.9,2.8
				c0.3,0.2,0.6,0.1,0.8-0.2l1-1.6c0.1-0.2,0.4-0.3,0.7-0.2c0.8,0.3,1.7,0.5,2.6,0.7c0.3,0.1,0.5,0.3,0.5,0.6v1.8
				c0,0.3,0.3,0.6,0.6,0.6h5.7c0.3,0,0.6-0.3,0.6-0.6v-1.8c0-0.3,0.2-0.5,0.5-0.6c0.7-0.1,1.4-0.3,2.1-0.5c0.3-0.1,0.6,0,0.7,0.3
				l0.9,1.6c0.2,0.3,0.5,0.4,0.8,0.2l5-2.7c0.3-0.2,0.4-0.5,0.2-0.8l-0.9-1.6c-0.1-0.2-0.1-0.5,0.1-0.7c0.7-0.5,1.3-1.1,1.8-1.7
				c0.2-0.2,0.5-0.3,0.7-0.1l1.6,0.9c0.3,0.2,0.6,0.1,0.8-0.2l2.9-4.8c0.2-0.3,0.1-0.6-0.2-0.8l-1.6-0.9c-0.2-0.1-0.3-0.4-0.3-0.7
				c0.3-0.8,0.5-1.7,0.7-2.5c0.1-0.3,0.3-0.5,0.6-0.5h1.9c0.3,0,0.6-0.3,0.6-0.6V171C437.9,170.6,437.7,170.4,437.3,170.4
				 M415.4,184c-5.8,0-10.6-4.6-10.6-10.2c0-5.6,4.7-10.2,10.6-10.2s10.6,4.6,10.6,10.2C425.9,179.4,421.2,184,415.4,184"/>
		</g>
		<g>
			<path class="st4" d="M95.9,100.3c0-15.5,13-28.1,29.1-28.1c16.1,0,29.1,12.6,29.1,28.1c0,15.5-13,28.1-29.1,28.1
				C108.9,128.4,95.9,115.9,95.9,100.3"/>
			<rect x="105.4" y="89.1" class="st5" width="38.8" height="24.2"/>
			<polyline class="st6" points="105.4,113.3 125,97.6 144.2,113.3 			"/>
			<polygon class="st7" points="124.6,104.9 105.4,89.1 144.2,89.1 			"/>
		</g>
		<g>
			<path class="st3" d="M51,125.7c0-8.9,7.5-16.2,16.7-16.2c9.2,0,16.7,7.2,16.7,16.2c0,8.9-7.5,16.2-16.7,16.2
				C58.5,141.8,51,134.6,51,125.7"/>
			<g>
				<path class="st8" d="M78.6,120.8c-3-3-6.8-4.6-10.9-4.6c-4,0-7.9,1.6-10.9,4.6c-0.5,0.5-0.5,1.4,0,1.9c0.6,0.5,1.5,0.5,2,0
					c2.4-2.4,5.6-3.8,8.8-3.8c3.2,0,6.4,1.3,8.8,3.8c0.3,0.3,0.6,0.4,1,0.4c0.4,0,0.7-0.1,1-0.4C79.2,122.2,79.2,121.4,78.6,120.8"
					/>
				<path class="st8" d="M67.8,121.2c-2.8,0-5.6,1.2-7.6,3.3c-0.5,0.6-0.5,1.4,0.1,1.9c0.6,0.5,1.5,0.5,2-0.1
					c1.5-1.6,3.5-2.5,5.6-2.5c2.1,0,4,0.9,5.6,2.5c0.3,0.3,0.7,0.4,1,0.4c0.3,0,0.7-0.1,1-0.4c0.6-0.5,0.6-1.4,0.1-1.9
					C73.3,122.4,70.6,121.2,67.8,121.2"/>
				<path class="st8" d="M67.8,126.6c-1.8,0-3.5,0.8-4.7,2.2c-0.5,0.6-0.4,1.4,0.2,1.9c0.3,0.2,0.6,0.3,0.9,0.3
					c0.4,0,0.8-0.2,1.1-0.5c1.4-1.6,3.7-1.6,5.1,0c0.5,0.6,1.4,0.6,2,0.2c0.6-0.5,0.7-1.4,0.2-1.9C71.2,127.4,69.6,126.6,67.8,126.6
					"/>
				<path class="st8" d="M67.8,132.3c-0.9,0-1.7,0.7-1.7,1.6c0,0.9,0.7,1.6,1.7,1.6c0.9,0,1.7-0.7,1.7-1.6
					C69.4,133,68.7,132.3,67.8,132.3"/>
			</g>
		</g>
		<g>
			<path class="st3" d="M81.2,175.2c0-15.6,13.1-28.3,29.3-28.3c16.2,0,29.3,12.7,29.3,28.3s-13.1,28.3-29.3,28.3
				C94.3,203.6,81.2,190.9,81.2,175.2"/>
			<path class="st5" d="M121.4,192.5l-3.7-9.7c-0.2-0.6-0.8-0.8-1.4-0.6l-3.2,1.1c-0.6,0.2-1.2-0.1-1.4-0.6l-5.6-14.7
				c-0.2-0.6,0.1-1.2,0.7-1.4l3.4-1.2c0.6-0.2,0.9-0.8,0.7-1.4l-3.3-8.8c-0.2-0.6-0.8-0.8-1.4-0.6l-6.3,2.2c-3.3,1.2-5,4.7-3.8,8
				l8.2,21.7l2.2,5.9c1.2,3.2,4.9,4.9,8.2,3.7l6.1-2.2C121.3,193.6,121.6,193,121.4,192.5"/>
		</g>
		<g>
			<path class="st9" d="M210.4,117.8c5.8,0.7,21-0.2,35.3,15.9c14.3,16.2,5.3,33.8-0.3,39.3c-5.7,5.5,6,20.5,5.7,41.8
				c-0.3,21.3-33.1,30.2-58.9,28.2c-25.9-2-43.8-11.3-42.9-32.8c0.9-21.5,7.6-19.8,8.1-49.2C157.8,131.7,178.6,114.2,210.4,117.8"/>
			<path class="st8" d="M242.8,238.3c-0.5-6.3-3-8.9-15.1-11.3c-10.4-2-11.6-2.9-25.5-3c-8.5-0.1-19.9,0.1-33.7,3.5
				c-13.8,3.3-12.1,9.3-12.2,18c-0.2,8.7,0.5,146.5,0.5,146.5h88.1C244.8,392,243.3,244.7,242.8,238.3"/>
			<path class="st10" d="M239.8,387.9c-9.7-3.2-19.6-8.5-24.9-17.6c0,0,0,0,0,0c-4.4-5.7-7.5-12.4-9.9-19.2
				c-5.1-14.4-6.3-29.5-6.7-44.7c-0.4-15.7,0.3-31.7-3.3-47.1c-1.6-7.2-4-14.2-7.2-20.9c-1.6-3.4-3.4-6.7-5.2-10
				c-0.6-1-1.1-2.1-1.7-3.1c-3.9,0.5-8,1.3-12.4,2.3c-13.8,3.3-12.1,9.3-12.2,18c-0.2,8.7,0.5,146.5,0.5,146.5h88.1c0,0,0-0.9,0-2.7
				C243.1,388.9,241.5,388.4,239.8,387.9z"/>
			<path class="st11" d="M225.1,226.3c-4.9-1-6.8-1.1-9.9-1.6l0.1-12.5l-25.4-5.7l-0.4,17.8c-4.1,0.3-8.6,0.7-13.5,1.6
				c7.7,20.1,32.6,28.2,36,28.2c3.4,0,13.3-15,13.8-21.3C225.9,230.3,225.5,228,225.1,226.3"/>
			<path class="st12" d="M215.4,224.7c-0.1,0-0.2,0-0.2,0l0.1-12.5l-25.4-5.7l-0.3,12.4C195.5,225,207,226.3,215.4,224.7z"/>
			<path class="st13" d="M250.4,183.6c-0.8,7.4-5.4,12.6-10.8,12.1c-5.3-0.6-9-7.2-8.2-14.6c0.8-7.4,5.5-12.4,10.8-11.9
				C247.6,169.7,251.3,176.2,250.4,183.6"/>
			<path class="st11" d="M230.4,138.5l-35-0.9c-6.5-0.2-12,4.8-12.1,11.1l-1.1,41.2c-0.6,15.5,10.4,28.4,29.9,29.4
				c14.3,0.7,28.3-8.3,28.6-26.4l1.2-42.6C242,143.9,236.9,138.6,230.4,138.5"/>
			<path class="st12" d="M188,163.4c2,0.1,4.1,0.1,6.2-0.1c4.4-0.4,8.8-1.5,12.9-3.1c3.6-1.4,7.5-2.9,10.4-5.5
				c2-1.8,3.5-4.8,6.2-5.8c2.5-0.9,5.3-0.5,7.8,0.4c4.6,1.7,8.2,4.6,10.2,8.9l0.2-8c0.2-6.3-5-11.6-11.5-11.7l-35-0.9
				c-6.5-0.2-12,4.8-12.1,11.1l-0.4,13.9C184.5,163.3,186.6,163.3,188,163.4z"/>
			<g>
				<path class="st9" d="M180,175.5c0,0,7.6-3.4,7.6-15.9c0,0,28.1,2.6,33.2-18.1c0,0,19.3,1.8,20.9,20.9c0.3,3.1,8.3-8.4,2.3-20.9
					c-5.9-12.5-37.1-16.8-51.4-9.6C184.7,135.9,179.2,140.3,180,175.5"/>
				<path class="st14" d="M181.9,146c1.3,0.8,3.3,0.6,4.8,0.3c4-0.7,6.5-3,9.9-5.1c0.4-0.2,0.9,0.1,0.7,0.6
					c-0.3,0.9-1.6,4.4,0.1,4.8c1.1,0.3,2.3-0.2,3.3-0.7c2.3-1.1,4.4-2.5,6.3-4.1c0.4-0.3,0.9,0,0.8,0.5c-0.5,3.5,3.2,1.2,4.7,0.1
					c1.6-1.1,3.4-2.5,4.4-4.2c0.2-0.3,0.6-0.3,0.8-0.1c1.8,2,7.6,3.9,6.2-0.8c-0.2-0.5,0.5-0.8,0.8-0.5c2.9,2.3,6.6,4.4,10.3,5.1
					c2,0.4,5.3,0.6,6.8-1.3c0.5-0.6,0.6-1.2,0.6-1.8c-8.8-10.4-36.4-13.6-49.7-6.9C187.9,134.3,184,136.8,181.9,146z"/>
			</g>
			<g>
				<g>
					<path class="st15" d="M195.8,169.5c-0.1,0,0.1-0.3,0.3-0.8c0.2-0.5,0.7-1,1.3-1.7c0.6-0.6,1.4-1.2,2.4-1.6
						c0.9-0.4,2-0.4,2.9-0.2c1.7,0.5,2.4,1.2,2.7,1.5c0.3,0.4,0.2,0.5,0.1,0.6c-0.1,0.1-0.2,0.2-0.6,0c-0.4-0.2-1-0.7-2.4-1.1
						c-0.7-0.2-1.5-0.1-2.3,0.1c-0.8,0.2-1.5,0.7-2.1,1.2C196.7,168.7,195.9,169.6,195.8,169.5"/>
					<path class="st15" d="M199.6,178.6c0-2.7,1-4.8,2.3-4.8c1.3,0,2.3,2.2,2.3,4.8s-1,4.8-2.3,4.8
						C200.6,183.4,199.6,181.3,199.6,178.6"/>
				</g>
				<g>
					<path class="st15" d="M236.5,167.4c-0.1,0.1-0.9-0.6-2.1-1c-1.2-0.5-2.8-0.3-3.9,0.4c-1.1,0.6-1.6,1-1.9,1.2
						c-0.3,0.2-0.4,0.1-0.6,0c-0.1-0.1-0.2-0.2,0-0.6c0.2-0.3,0.7-0.9,1.9-1.6c0.6-0.3,1.5-0.6,2.3-0.6c0.9,0,1.7,0.2,2.4,0.5
						C236,166.4,236.6,167.4,236.5,167.4"/>
					<path class="st15" d="M229.9,178.6c0-2.7,1-4.8,2.3-4.8c1.3,0,2.3,2.2,2.3,4.8s-1,4.8-2.3,4.8
						C231,183.4,229.9,181.3,229.9,178.6"/>
				</g>
				<path class="st15" d="M223.2,189.9c-0.1-0.2-0.2-0.4-0.4-0.6c-0.5-0.7-1-1.4-1.5-1.9c-0.2-0.3-0.5-0.6-0.6-0.8
					c-0.1-0.2-0.2-0.5-0.3-0.8c-0.3-1-0.4-1.7-0.5-1.7c-0.1,0-0.3,0.7-0.2,1.9c0,0.3,0.1,0.6,0.2,1c0.2,0.4,0.4,0.7,0.6,1
					c0.4,0.6,0.9,1.2,1.4,1.9c0.1,0.2,0.2,0.3,0.3,0.5c0,0.1,0.1,0.2,0.1,0.2c0,0,0,0,0,0s-0.2,0.2-0.3,0.3
					c-0.1,0.1-0.2,0.3-0.4,0.4c-0.5,0.5-0.9,1-1.3,1.4c-0.8,0.8-1.2,1.4-1.1,1.5c0.1,0.1,0.7-0.3,1.6-1c0.4-0.4,1-0.8,1.5-1.3
					c0.1-0.1,0.3-0.3,0.4-0.4c0.1-0.2,0.3-0.3,0.4-0.6c0.1-0.2,0.1-0.4,0-0.6C223.3,190.1,223.2,190,223.2,189.9"/>
				<g>
					<path class="st16" d="M197,186.9c-0.2-0.2-0.4-0.2-0.9,0.4c-0.6,0.6-1.4,1.8-1.2,1.9c0.2,0.2,1.2-0.7,1.8-1.4
						C197.3,187.2,197.2,187.1,197,186.9"/>
					<path class="st16" d="M199.7,186.9c-0.2-0.2-0.4-0.2-0.9,0.4c-0.6,0.6-1.4,1.8-1.2,1.9c0.2,0.2,1.3-0.7,1.8-1.4
						C200,187.2,199.8,187.1,199.7,186.9"/>
				</g>
				<g>
					<path class="st16" d="M235.3,186c-0.2-0.2-0.4-0.2-0.9,0.4c-0.6,0.6-1.4,1.8-1.2,1.9c0.2,0.2,1.2-0.7,1.8-1.4
						C235.5,186.3,235.4,186.2,235.3,186"/>
					<path class="st16" d="M237.9,186c-0.2-0.2-0.4-0.2-0.9,0.4c-0.6,0.6-1.4,1.8-1.2,1.9c0.2,0.2,1.3-0.7,1.8-1.4
						C238.2,186.3,238.1,186.2,237.9,186"/>
				</g>
				<g>
					<path class="st17" d="M224.9,199.5h-17.4c-1,0-1.9,0.8-1.9,1.8c0,5,4.2,9.1,9.4,9.1h2.5c5.1,0,9.3-4,9.3-9v-0.1
						C226.8,200.3,226,199.5,224.9,199.5"/>
					<path class="st18" d="M216,204.2l-2.4-0.2c-2.5-0.2-4.8,0.7-6.5,2.2c1.7,2.5,4.6,4.2,7.9,4.2h2.5c2.1,0,4.1-0.7,5.7-1.9
						C221.7,206.1,219.1,204.4,216,204.2"/>
					<path class="st8" d="M218.3,203.1c3.1,0,6-0.2,8.4-0.6c0-0.3,0.1-0.7,0.1-1v-0.1c0-1-0.8-1.8-1.9-1.8h-17.4
						c-1,0-1.9,0.8-1.9,1.8c0,0.4,0,0.8,0.1,1.1c2.4,0.4,5.4,0.6,8.6,0.6H218.3z"/>
				</g>
			</g>
			<path class="st19" d="M202.8,208.8c0.5-2.9,3.7-4.7,7.2-4.1c3.4,0.6,5.8,3.4,5.3,6.2c-0.5,2.9-3.7,4.7-7.2,4.1
				C204.6,214.5,202.3,211.7,202.8,208.8"/>
			<path class="st19" d="M209.1,211.1c0,0-0.1,0-0.1,0c-20.6-1.4-28.2-15.9-28.5-16.5c-0.4-0.7-0.1-1.6,0.7-2
				c0.8-0.4,1.7-0.1,2.1,0.7c0.3,0.6,7.2,13.6,25.9,14.8c0.9,0.1,1.5,0.8,1.4,1.6C210.6,210.5,210,211.1,209.1,211.1"/>
			<path class="st17" d="M237.8,229.2c0,0,6.1,1,12.7,10.8c6.6,9.8,33.3,70,41.6,82c8.3,12,61.5,66.7,61.5,66.7h-39
				c0,0-25.5-23.2-41.2-42.3c-15.7-19.2-32.6-53-32.6-53L237.8,229.2z"/>
			<g>
				<path class="st20" d="M178.8,176c0,0-0.4-11.5-0.4-23.7c0-17,8.1-31.8,32-34.6c0,0-12.8-4.9-26.5,7c-10,9.7-10.3,18.7-10.6,26.8
					c-0.3,8.1,0,24.5,0,24.5L178.8,176z"/>
				<g>
					<g>
						<path class="st8" d="M173.2,176.1l5.6-0.1c0,0-0.1-3.8-0.3-9.3h-5.5C173.1,171.9,173.2,176.1,173.2,176.1"/>
						<path class="st5" d="M173.1,163.7h5.4c0-1,0-2.1,0-3.1h-5.4C173.1,161.6,173.1,162.6,173.1,163.7"/>
						<path class="st7" d="M173.1,163.7c0,1,0,2.1,0,3h5.5c0-1,0-2-0.1-3H173.1z"/>
					</g>
					<g>
						<path class="st20" d="M164.3,186.6c-1.1-8.1,3.7-15.3,10.7-16.2c7-0.9,13.2,3.1,14.7,12.6c1.3,8,0.4,14.8-10,16.9
							C172.8,201.2,165.4,194.6,164.3,186.6"/>
						<path class="st13" d="M164.2,185.9c-1-7.1,2.7-13.1,8.6-13.8c5.9-0.8,11.6,4.5,12.6,11.6c1,7.1-2.8,12.9-8.7,13.7
							C170.8,198.1,165.2,193,164.2,185.9"/>
						<path class="st21" d="M176.1,181.4c-1.6-2.2-1.8-4.7-0.5-5.7c1.3-1,3.6-0.1,5.2,2.2c1.6,2.2,1.8,4.6,0.5,5.7
							C180,184.6,177.7,183.6,176.1,181.4"/>
					</g>
				</g>
			</g>
			<path class="st13" d="M220.2,225.4c0,0,9.3,28.1,10,51.1c0.7,23,0.5,115.5,0.5,115.5h21.9c0,0-1.2-83.7-0.7-86.2
				c0.5-2.5,9.1-10.8,4-29.7c-5.2-18.8-8.3-22.2-9.3-27.5c-1-5.3,0.3-16.9-8.1-19.3C228.2,226.4,220.2,225.4,220.2,225.4"/>
			<path class="st13" d="M183.4,224.4c0,0-21.4,0.8-30.4,11.6c-9,10.9,2.6,39.6,2.3,53.5c-0.3,13.9-4.3,102.1-4.3,102.1h44.1
				c0,0,1.6-87.6,1.4-107.2C196.5,264.8,183.4,224.4,183.4,224.4"/>
			<path class="st20" d="M194.3,351.2c-5.1-0.7-10.4-3.2-14.9-5.8c-5.5-3.1-10.4-6.9-13.9-12.2c-3.3-4.9-5.9-11-6.7-16.9
				c-0.8-6.5-0.5-13.2,0-19.6c0.2-3,0.6-6.3,0.1-9.3c-0.3-1.4-0.8-3.8-2.3-4.6c-0.6-0.4-1.2,0-1.7,0.7c0.3,2.2,0.4,4.2,0.4,6
				c-0.3,13.9-4.3,102.1-4.3,102.1h44.1c0,0,0.3-18.4,0.7-40.3C195.3,351.3,194.8,351.3,194.3,351.2z"/>
			<path class="st13" d="M163.2,275.7c0,0-33.2,47.8-33.2,48.2s74.3,22.4,74.3,22.4l-7.2,20.5c0,0-80.5-14.9-95.3-21.5
				s-8.5-18.9-0.1-33.5s28.4-46.5,39.2-62.2c10.7-15.8,18.2-19.5,27-21.6C176.7,225.8,160.5,229.7,163.2,275.7"/>
			<path class="st17" d="M171.1,353.6c-11.6,0.9-23.5,0.5-35-1.1c-11.9-1.7-26.5-5.3-34.6-15c-3.6-4.3-5.1-9.2-4.5-14.8
				c0.1-1.2,0.4-2.4,0.7-3.6c-5.9,11.4-8.1,20.7,4.1,26.2c14.7,6.6,95.3,21.5,95.3,21.5l7.2-20.5c0,0-1.1-0.3-3.1-0.9
				C192.2,350.7,181.5,352.9,171.1,353.6z"/>
			<path class="st18" d="M123.1,328.9c5.3,3,11.9,2.9,17.8,3.9c7.6,1.3,15,3.5,22.6,4.9c6.5,1.2,12.9,2.2,19.4,3.8
				c4.1,1,8.5,2.1,12.8,2.2c-19.6-5.8-65.6-19.4-65.6-19.8c0-0.4,18.3-26.7,27.7-40.3c-4.9,5.7-10.4,10.9-15,16.8
				c-6.5,8.3-11.7,17.7-20,24.4c0.8,0.3,1.4,0.8,2.2,1.1c0.3,0.1,0.3,0.6,0.1,0.8C124.3,327.3,123.8,328.2,123.1,328.9z"/>
			<path class="st11" d="M191.9,355.9c2.7-12.5,12.2-13.1,23.4-14.2c11.1-1.1,14.2,0.4,20.3,3.2c6.1,2.8,10.5,5.2,10,7.4
				c-0.5,2.2-1.7,4-4.8,3c-3.1-1-11.3,3.6-10.9,6.4c0.4,2.8,6.4,6,4.7,9c-1.7,3-6.4,2.5-10.3,0.2c-3.9-2.2-5.6-3.1-7.4-2.1
				c-1.8,1-11.2,2-17.7-0.2C192.8,366.4,190.4,362.6,191.9,355.9"/>
			<path class="st12" d="M225.3,367.9c-1.9-1.3-3.4-3.3-5.7-3.9c-2.5-0.7-5-0.2-7.6-0.1c-3.2,0.1-6.6-0.1-9.6-1.5
				c-5.2-2.4-8.3-7.2-6.6-13c0.2-0.8,0.6-1.7,1-2.5c-2.3,2-4,4.8-4.9,9c-1.5,6.7,0.9,10.5,7.3,12.8c6.5,2.2,15.9,1.2,17.7,0.2
				c1.8-1,3.5-0.2,7.4,2.1c3.6,2.1,7.8,2.7,9.8,0.4C231.1,371.4,227.1,369.2,225.3,367.9z"/>
			<path class="st11" d="M229.2,348.5c0,0,9.8,4.7,13.9,6.9c4,2.2,5.9,4.6,4,7.4c-1.9,2.8-11.2-0.8-19-4.7"/>
			<path class="st11" d="M226.5,355.6c0,0,8.6,3.8,13.4,6.2c4.8,2.4,3.8,4.8,2.7,6.4c-1.1,1.7-3.8,1.8-9.7-0.8
				c-5.9-2.6-10.3-4.7-10.3-4.7"/>
		</g>
		<g>
			<polygon class="st22" points="95.8,374 90.2,372.3 107.6,316.8 113.2,318.4 			"/>
			<polygon class="st23" points="113,319.2 107.4,317.6 107.6,316.8 113.2,318.4 			"/>
			<polygon class="st22" points="110.4,317.6 107.6,316.8 109.8,314.7 112,312.6 112.6,315.5 113.2,318.4 			"/>
			<polygon class="st23" points="101.5,371.3 95.8,372.6 82.7,315.9 88.4,314.7 			"/>
			<polygon class="st24" points="88.6,315.5 82.9,316.8 82.7,315.9 88.4,314.7 			"/>
			<polygon class="st22" points="85.6,315.3 82.7,315.9 83.6,313 84.4,310.2 86.4,312.4 88.4,314.7 			"/>
			<path class="st6" d="M99.3,317.6c-0.4,0-0.7,0.4-0.6,0.7l3.8,41.5h0l1,1.1l1,1.1l0.8-1.2l0.8-1.2h0l-3.8-41.5
				c0-0.4-0.4-0.6-0.8-0.6L99.3,317.6z"/>
			<path class="st7" d="M101.7,317.4l-2.4,0.2c-0.4,0-0.7,0.3-0.6,0.6l1.1,11.9l3.8-0.3l-1.1-11.9
				C102.4,317.6,102.1,317.4,101.7,317.4"/>
			<path class="st25" d="M77.5,330.3c-0.1-0.2-0.3-0.3-0.5-0.2l-0.8,0.3c-0.2,0.1-0.3,0.3-0.2,0.5c0.1,0.2,0.3,0.3,0.5,0.2l0.8-0.3
				C77.5,330.7,77.6,330.5,77.5,330.3"/>
			<polygon class="st25" points="72.3,320 76.3,318.7 76,317.8 72,319.1 			"/>
			<path class="st26" d="M77.2,330.9l-4.1-12c-0.1-0.3-0.4-0.4-0.7-0.3l-0.5,0.1c-0.3,0.1-0.4,0.4-0.3,0.7l4.1,12
				c0.1,0.3,0.4,0.4,0.7,0.3l0.5-0.1C77.1,331.5,77.3,331.2,77.2,330.9"/>
			<path class="st5" d="M73.1,312.1c-0.5,0.2-0.7,0.7-0.6,1.1l18.6,54.7h0L93,369l1.8,1.1l0.8-1.9l0.8-1.9h0l-18.6-54.7
				c-0.2-0.5-0.7-0.7-1.2-0.6L73.1,312.1z"/>
			<polygon class="st27" points="91.2,367.9 91.2,367.9 91.2,367.9 			"/>
			<polygon class="st27" points="96.3,366.2 96.3,366.2 96.3,366.2 			"/>
			<path class="st18" d="M77.7,311.4c-0.1-0.4-0.6-0.6-1-0.5l-3.7,1.2c-0.4,0.1-0.6,0.6-0.5,1l1.1,3.2l5.2-1.6L77.7,311.4z"/>
			<polygon class="st27" points="91.2,367.9 91.2,367.9 96.3,366.2 96.3,366.2 93.7,367 			"/>
			<polygon class="st26" points="78.8,314.6 73.6,316.2 73.9,317.2 79.1,315.6 			"/>
			<polygon class="st25" points="74.7,319.3 79.8,317.7 79.5,316.7 74.3,318.3 			"/>
			<path class="st5" d="M95.3,312.1c-1,0-1.7,0.8-1.7,1.7v56.8h0l1.3,1.6l1.3,1.6l1.3-1.6l1.3-1.6h0v-56.8c0-0.9-0.8-1.7-1.7-1.7
				H95.3z"/>
			<path class="st18" d="M97.8,312.1h-3.1c-0.6,0-1.1,0.5-1.1,1v3h5.2v-3C98.8,312.6,98.4,312.1,97.8,312.1"/>
			<rect x="93.6" y="316.2" class="st25" width="5.2" height="1.1"/>
			<rect x="93.6" y="318.4" class="st25" width="5.2" height="1.1"/>
			<path class="st28" d="M107.4,334.9H79.2c-0.7,0-1.3,0.6-1.3,1.3v37.8c0,0.7,0.6,1.3,1.3,1.3h28.2c0.7,0,1.3-0.6,1.3-1.3v-37.8
				C108.7,335.4,108.1,334.9,107.4,334.9"/>
			<path class="st4" d="M107.4,334.9H79.2c-0.7,0-1.3,0.6-1.3,1.3v5.5h30.8v-5.5C108.7,335.4,108.1,334.9,107.4,334.9"/>
		</g>
		<g>
			<g>
				<g>
					<path class="st26" d="M441.8,328.7l-153.4,0.9c-3.2,0-5.8-2.6-5.7-5.7l4.7-108.3c0.1-2.9,2.6-5.2,5.7-5.2h155.3
						c3.3,0,5.8,2.7,5.6,5.8l-6.6,107.3C447.2,326.4,444.8,328.7,441.8,328.7"/>
					<path class="st25" d="M302.6,265c-0.3-11-1.5-22-4.4-32.6c-1.8-6.8-4-15.1-9.2-20.4c-1,0.9-1.7,2.2-1.7,3.7l-4.7,108.3
						c-0.1,3.1,2.5,5.7,5.7,5.7l8.6-0.1C300.3,308.2,303.3,286.6,302.6,265z"/>
					<path class="st22" d="M454,215.7H300.2c-3.1,0-5.7,2.4-5.8,5.3l-4.7,108.6l152.1-0.9c3,0,5.4-2.3,5.6-5.1l6.6-107.3
						C454,216,454,215.8,454,215.7"/>
					<path class="st29" d="M433.7,222.1c-1.8-0.4-3.5-0.5-4.9-0.6c-2.5-0.1-5.5,0-7.7,1.6c-1.2,0.9-2.5,2.8-2,4.4
						c0.6,1.7,2.2,2.4,3.4,3.4c4.1,3.1,5.2,8.5,5.2,13.7c0,7.1-1,14.2,3.1,20.4c2.1,3.2,5.1,5.3,8.1,2c2.7-3,4.2-7.2,5.4-11
						c2.5-8.3,4.7-18.7-0.2-26.5C441.5,225.5,437.8,223.3,433.7,222.1z"/>
					<path class="st26" d="M405.2,302.9c-18.4,2.4-37.5,3.2-55.8-0.3c-16.4-3.1-32.6-9.9-43.8-22.6c-5.7-6.5-10-14.1-12.8-22.3
						l-3.1,71.9l152.1-0.9c3,0,5.4-2.3,5.6-5.1l1.8-29.3C434.7,297.9,420,301,405.2,302.9z"/>
					<path class="st23" d="M355.3,262.9c0-8.6,7.2-15.5,16-15.5c8.9,0,16,6.9,16,15.5c0,8.6-7.2,15.5-16,15.5
						C362.5,278.4,355.3,271.5,355.3,262.9"/>
					<g>
						<path class="st23" d="M439.9,240.6c-0.9,0-1.5-0.7-1.5-1.6l0.3-7.7c0-0.8,0.7-1.5,1.6-1.4c0.9,0,1.5,0.7,1.5,1.6l-0.3,7.7
							C441.4,240,440.7,240.6,439.9,240.6"/>
						<path class="st23" d="M439.2,257.3c-0.9,0-1.5-0.7-1.5-1.6l0.5-12.9c0-0.8,0.7-1.5,1.6-1.4c0.9,0,1.5,0.7,1.5,1.6l-0.5,12.9
							C440.8,256.7,440.1,257.4,439.2,257.3"/>
					</g>
				</g>
				<g>
					<polygon class="st26" points="394.6,367.1 362.4,367.1 355.3,298.7 387.5,298.7 					"/>
					<path class="st22" d="M357.8,307.1c0.9,4.3,1.8,8.7,3.1,12.9c2.3,7.5,5.5,15.1,9.9,21.6c4.4,6.6,10.2,12.4,18,14.7
						c1.5,0.5,3.1,0.8,4.7,1.1l-6.1-58.8h-31.5C357.1,301.3,357.3,304.5,357.8,307.1z"/>
					<polygon class="st25" points="355.3,298.7 351.9,302.6 358.9,371 362.4,367.1 					"/>
					<path class="st25" d="M409.3,363.5h-67.5c-2.2,0-4,1.7-4,3.9v12.4h75.5v-12.4C413.3,365.3,411.5,363.5,409.3,363.5"/>
					<path class="st26" d="M410.5,367.9c0,0.8-0.6,1.4-1.4,1.4h-43.3c-0.8,0-1.4-0.6-1.4-1.4l0,0c0-0.8,0.6-1.4,1.4-1.4h43.3
						C409.9,366.5,410.5,367.1,410.5,367.9L410.5,367.9z"/>
				</g>
			</g>
			<path class="st26" d="M324.1,366.3H175.9c-2.2,0-4,1.7-4,3.9v12.4h156.3v-12.4C328.2,368,326.4,366.3,324.1,366.3"/>
		</g>
		<g>
			<rect x="63.2" y="380.7" class="st7" width="384" height="119.3"/>
			<rect x="63.2" y="380.7" class="st6" width="384" height="11.3"/>
			<path class="st5" d="M462.1,374.4H48.4c-2.9,0-5.3,2.4-5.3,5.4v0.8c0,3,2.4,5.4,5.3,5.4h413.7c2.9,0,5.3-2.4,5.3-5.4v-0.8
				C467.4,376.8,465,374.4,462.1,374.4"/>
		</g>
		<g>
			<g>
				<path class="st4" d="M372.8,73h-99.4c-5.9,0-10.8,4.7-10.8,10.4v59.2c0,5.8,4.8,10.4,10.8,10.4h8v18l18.6-18h72.8
					c5.9,0,10.8-4.7,10.8-10.4V83.4C383.6,77.7,378.8,73,372.8,73"/>
				<path class="st8" d="M365,101h-83.4c-1.4,0-2.6-1.1-2.6-2.5c0-1.4,1.2-2.5,2.6-2.5H365c1.4,0,2.6,1.1,2.6,2.5
					C367.6,99.9,366.4,101,365,101"/>
				<path class="st8" d="M365,115.8h-83.4c-1.4,0-2.6-1.1-2.6-2.5c0-1.4,1.2-2.5,2.6-2.5H365c1.4,0,2.6,1.1,2.6,2.5
					C367.6,114.7,366.4,115.8,365,115.8"/>
				<path class="st8" d="M319.5,130.7h-37.9c-1.4,0-2.6-1.1-2.6-2.5c0-1.4,1.2-2.5,2.6-2.5h37.9c1.4,0,2.6,1.1,2.6,2.5
					C322.1,129.5,320.9,130.7,319.5,130.7"/>
			</g>
			<g>
				<g>
					<path class="st26" d="M287,69c0-0.9,0-1.4,0-2.3c1-1.2,1.6-1.7,2.6-2.9c6.3-6.8,9.2-10.4,9.2-14.5c0-2.8-1.3-5.4-5.1-5.3
						c-2.3,0-4.2,1.3-5.3,2.4c-0.5-1-0.7-1.6-1.1-2.6c1.7-1.6,4.2-2.9,7.1-2.9c5.5-0.1,7.8,4,7.8,7.9c0,5.1-3.3,9.2-8.5,14.9
						c-0.8,0.8-1.2,1.2-2,2.1c0,0,0,0.1,0,0.1c4.5-0.1,6.8-0.1,11.3-0.1c0,1.2,0,1.9,0,3.1C296.5,68.9,293.4,68.9,287,69z"/>
					<path class="st26" d="M317.2,68.8c0-3,0-4.5,0-7.5c-4.7,0-7,0-11.7,0.1c0-1,0-1.5,0-2.5c4.4-7.1,6.7-10.6,11.2-17.7
						c1.5,0,2.2,0,3.7,0c0,6.9,0,10.3,0,17.1c1.4,0,2.1,0,3.5,0c0,1.2,0,1.8,0,2.9c-1.4,0-2.1,0-3.5,0c0,3,0,4.5,0,7.5
						C319.1,68.8,318.4,68.8,317.2,68.8z M317.1,58.3c0-3.7,0-5.5,0-9.2c0-1.4,0-2.9,0.1-4.3c0,0-0.1,0-0.1,0
						c-0.8,1.6-1.4,2.8-2.1,4.1c-2.5,3.8-3.7,5.6-6.1,9.4c0,0,0,0.1,0,0.1C312.2,58.3,313.9,58.3,317.1,58.3z"/>
					<path class="st26" d="M324.7,70.5c3.6-10.3,7.2-20.5,10.9-30.7c1.1,0,1.6,0,2.7,0c-3.7,10.2-7.4,20.5-11,30.7
						C326.2,70.5,325.7,70.5,324.7,70.5z"/>
					<path class="st26" d="M356.3,41.4c0,1,0,1.5,0,2.5c-4.6,10-6.8,15-11.3,25c-1.4,0-2.1,0-3.5,0c4.4-9.7,6.7-14.6,11.2-24.3
						c0,0,0-0.1,0-0.1c-4.9-0.1-7.4-0.1-12.4-0.1c0-1.2,0-1.9,0-3.1C346.7,41.3,349.9,41.3,356.3,41.4z"/>
				</g>
			</g>
		</g>
	</g>
	<text transform="matrix(1 0 0 1 132.3081 457.8696)" class="st30 st31 st32">WEBB SCHOOL</text>
</g>
</svg>
